<svg xmlns="http://www.w3.org/2000/svg" width="750" height="750" viewBox="0 0 750 750" version="1.1"><path d="M 529.637 30.405 C 521.999 33.246, 517 40.155, 517 47.870 L 517 51.804 503.704 52.152 C 493.700 52.414, 489.800 52.894, 487.954 54.091 C 485.934 55.400, 481.998 55.698, 465.709 55.774 C 442.842 55.881, 438.840 56.748, 431.538 63.176 C 428.996 65.413, 425.923 69.101, 424.708 71.372 L 422.500 75.500 422.500 186.500 C 422.500 280.172, 422.725 298.275, 423.941 302.467 C 425.677 308.452, 431.296 314.456, 438.500 318.024 L 443.500 320.500 485.700 320.800 C 527.113 321.095, 527.938 321.062, 529.950 319.050 C 532.530 316.470, 532.543 314.543, 530 312 C 528.069 310.069, 526.663 310, 489.250 309.994 C 465.680 309.991, 449.043 309.584, 446.781 308.956 C 444.736 308.388, 441.682 306.762, 439.995 305.342 C 433.607 299.967, 434 307.703, 434.004 187.300 C 434.007 80.067, 434.053 77.425, 435.965 74.290 C 437.041 72.525, 439.852 70.050, 442.211 68.791 C 446.158 66.683, 447.979 66.474, 465.047 66.175 L 483.594 65.850 483.547 71.175 L 483.500 76.500 469.659 77 C 456.619 77.471, 455.709 77.636, 453.909 79.861 C 452.057 82.151, 452 85.377, 452 187.555 L 452 292.888 454.414 295.694 L 456.828 298.500 496.387 298.500 L 535.945 298.500 538.216 296.229 C 540.346 294.099, 540.391 293.788, 538.955 291.229 L 537.424 288.500 500.212 288.238 L 463 287.976 463 187.988 L 463 88 473.500 88 C 483.848 88, 484 88.034, 484 90.345 C 484 97.213, 492.529 98.263, 544.780 97.830 C 587.933 97.472, 588.572 97.388, 589.661 91.946 L 590.250 89 600.074 89 L 609.897 89 610.199 103.750 C 610.364 111.862, 610.500 149.882, 610.500 188.239 C 610.500 245.391, 610.740 258.069, 611.832 258.489 C 613.871 259.272, 619.345 259.068, 620.783 258.155 C 621.816 257.500, 622.011 240.091, 621.783 169.213 C 621.504 82.425, 621.470 81.062, 619.500 79.575 C 617.947 78.401, 614.430 78.057, 603.750 78.032 L 590 78 590 72.443 L 590 66.886 610.430 67.193 C 633.198 67.535, 634.209 67.820, 638.500 75.105 C 640.452 78.418, 640.512 80.769, 641 172.462 L 641.500 266.424 644.157 267.915 C 646.294 269.114, 647.321 269.175, 649.407 268.224 L 652 267.043 652 173.559 C 652 80.749, 651.985 80.034, 649.879 74.407 C 647.257 67.399, 641.925 61.332, 636 58.618 C 632.003 56.786, 629.101 56.513, 610.059 56.175 C 592.275 55.860, 588.189 55.514, 586.105 54.148 C 584.176 52.883, 580.532 52.420, 570.409 52.155 L 557.227 51.809 556.807 46.002 C 556.092 36.119, 549.781 30.340, 538.682 29.405 C 535.573 29.143, 531.955 29.543, 529.637 30.405 M 532.206 41.048 C 529.073 42.305, 527 47.769, 527 54.768 C 527 57.976, 526.460 61.140, 525.800 61.800 C 524.971 62.629, 519.860 63, 509.269 63 L 493.938 63 494.219 75.250 C 494.374 81.987, 494.837 87.388, 495.250 87.250 C 495.663 87.112, 514.788 87, 537.750 87 L 579.500 87 579.500 75 L 579.500 63 566 62.882 C 558.575 62.817, 551.150 62.476, 549.500 62.124 L 546.500 61.485 546.212 52.785 C 545.946 44.777, 545.717 43.922, 543.327 42.042 C 540.602 39.899, 536.076 39.494, 532.206 41.048 M 512.243 133.523 L 500.730 145.047 494.939 139.523 C 489.103 133.957, 485.697 132.703, 483.200 135.200 C 480.331 138.069, 481.908 141.279, 490.314 149.686 C 496.318 155.689, 499.326 158, 501.139 158 C 503.042 158, 506.924 154.672, 517.180 144.250 C 524.622 136.688, 531.025 129.504, 531.410 128.288 C 532.500 124.846, 530.432 122, 526.843 122 C 524.238 122, 521.957 123.800, 512.243 133.523 M 544.223 138.557 C 542.982 139.426, 542 141.167, 542 142.500 C 542 147.378, 544.714 148, 566 148 C 587.189 148, 590 147.367, 590 142.598 C 590 137.471, 588.012 137, 566.394 137 C 549.957 137, 546.054 137.274, 544.223 138.557 M 511.589 188.946 L 499.500 200.893 493.838 195.446 C 487.020 188.889, 483.031 188.098, 481.038 192.909 C 479.451 196.739, 480.259 198.115, 488.855 206.224 C 495.812 212.787, 500.395 214.998, 503.472 213.276 C 504.323 212.799, 511.090 206.387, 518.510 199.027 C 529.352 188.271, 532 185.102, 532 182.879 C 532 179.866, 528.888 177, 525.617 177 C 524.482 177, 518.668 181.951, 511.589 188.946 M 544.020 188.980 C 541.723 191.277, 541.366 195.229, 543.309 196.841 C 544.139 197.530, 552.458 198.020, 566.040 198.179 L 587.463 198.429 588.981 195.715 C 590.341 193.284, 590.339 192.713, 588.962 190.250 L 587.425 187.500 566.733 187.230 C 547.111 186.974, 545.936 187.064, 544.020 188.980 M 511.555 240.989 L 500.416 251.979 494.489 245.989 C 488.224 239.658, 485.490 238.696, 482.655 241.829 C 479.595 245.210, 480.691 247.551, 489.250 255.912 C 501.207 267.592, 501.001 267.630, 517.798 250.667 C 525.059 243.334, 531 236.554, 531 235.601 C 531 232.136, 529.022 230, 525.811 230 C 523.185 230, 520.935 231.734, 511.555 240.989 M 240.162 235.032 C 231.263 237.363, 220.703 242.918, 213.967 248.810 C 207.989 254.040, 200.624 264.093, 198.349 270.130 C 196.297 275.577, 195.953 296.873, 197.682 311.500 C 199 322.651, 200.723 328.114, 207.303 342 C 212.660 353.305, 213.423 356.462, 212.527 363.627 C 211.854 369.017, 211.819 369.063, 206.175 371.921 C 193.157 378.513, 166.819 397.463, 157.605 406.867 L 152.711 411.862 148.689 407.681 C 146.477 405.382, 143.570 401.109, 142.231 398.186 C 140.891 395.263, 139.610 393.056, 139.385 393.281 C 138.386 394.281, 143.402 403.231, 147.544 407.838 L 152.093 412.897 148.043 420.043 C 138.405 437.052, 131.805 457.048, 123.607 494.073 C 117.314 522.491, 114.085 558.684, 114.022 601.515 L 114 616.529 96.250 616.835 C 77.412 617.160, 74.815 617.465, 71.250 619.773 C 68.216 621.738, 68.194 626.498, 71.211 628.113 C 72.873 629.002, 83.331 629.119, 113.302 628.582 C 135.235 628.189, 153.752 627.649, 154.450 627.381 C 155.470 626.989, 155.463 628.326, 154.412 634.197 C 152.619 644.217, 152.637 658.196, 154.449 662.532 L 155.898 666 173.377 666 L 190.856 666 191.178 680.898 C 191.458 693.869, 191.746 696.068, 193.405 697.898 C 195.918 700.671, 199.605 700.606, 201.127 697.763 C 201.826 696.456, 202.521 689.387, 202.798 680.763 L 203.272 666 258.886 665.946 C 289.474 665.916, 350.050 665.850, 393.500 665.798 L 472.500 665.704 472.778 680.567 C 473.033 694.182, 473.236 695.623, 475.202 697.715 C 477.654 700.325, 481.182 700.691, 482.981 698.523 C 483.818 697.514, 484.254 692.117, 484.354 681.531 L 484.500 666.016 499.139 666.008 C 517.039 665.998, 517.343 665.836, 519.561 655.096 C 521.263 646.861, 521.035 644.721, 517.348 634.247 L 514.795 626.994 524.934 616.374 C 538.897 601.749, 550.259 585.091, 554.498 573.029 L 555.738 569.500 557.399 575 C 558.312 578.025, 560.038 585.272, 561.235 591.104 L 563.411 601.707 557.260 608.604 C 553.877 612.397, 546.070 620, 539.910 625.500 C 523.854 639.837, 524 639.684, 524 642.232 C 524 645.551, 526.732 649, 529.361 649 C 533.127 649, 540.743 643.395, 552.904 631.673 C 559.280 625.528, 564.647 620.162, 564.831 619.750 C 565.555 618.132, 567 619.120, 567 621.234 C 567 622.463, 567.969 628.490, 569.152 634.627 L 571.305 645.785 566.869 650.143 C 564.429 652.539, 558.960 657.815, 554.716 661.866 C 550.472 665.918, 547 669.994, 547 670.925 C 547 673.074, 548.769 675.302, 552.177 677.449 L 554.854 679.135 564.478 670.443 C 584.844 652.048, 611.323 621.835, 620.909 606.051 C 628.877 592.933, 629.433 589.498, 628.653 558.209 C 628.287 543.519, 627.310 523.175, 626.482 513 C 623.757 479.512, 624.463 467.030, 629.579 458.283 C 632.852 452.688, 640.713 445.095, 646.425 442.011 L 651.036 439.522 655.667 441.979 C 666.060 447.493, 675.270 464.632, 679.731 486.761 C 681.012 493.117, 681.366 505.535, 681.713 556.250 L 682.136 618 672.068 618 C 666.531 618, 662 617.765, 662 617.479 C 662 617.192, 663.130 615.250, 664.511 613.163 C 671.299 602.905, 672.864 590.152, 673.244 542 L 673.500 509.500 671.168 505.750 C 668.392 501.285, 665.744 500.935, 663.273 504.705 C 661.699 507.107, 661.424 511.287, 660.820 541.955 C 660.105 578.237, 658.657 593.475, 655.178 601.320 C 650.046 612.893, 626.105 639.415, 608 653.584 C 598.625 660.921, 598.038 661.568, 598.015 664.576 C 597.997 667.059, 601.915 671, 604.401 671 C 608.165 671, 622.132 659.833, 637.481 644.553 L 653.500 628.605 683.226 628.548 C 712.497 628.493, 712.987 628.458, 715.156 626.288 C 717.051 624.393, 717.197 623.729, 716.201 621.542 C 715.127 619.185, 714.549 618.999, 708.271 618.989 C 704.547 618.983, 699.841 618.704, 697.813 618.368 L 694.126 617.759 693.744 557.629 C 693.326 491.728, 693.087 488.613, 687.013 469.748 C 681.265 451.894, 675.112 443.378, 656.548 427.587 C 649.952 421.976, 647.009 417.710, 647.004 413.750 C 647.002 412.238, 647.204 411, 647.452 411 C 647.701 411, 651.568 414.488, 656.046 418.750 C 666.057 428.281, 671.913 432.304, 680.455 435.519 C 691.301 439.602, 695.292 438.489, 690.568 432.700 C 683.539 424.087, 683.030 422.847, 681.985 411.821 C 681.435 406.014, 680.171 398.798, 679.177 395.785 C 675.413 384.376, 668.278 375.334, 660.359 371.940 L 655.959 370.054 667.010 359.902 C 681.476 346.611, 694 331.188, 694 326.662 C 694 323.157, 690.757 317.435, 683.202 307.615 C 660.120 277.609, 640.059 266, 611.287 266 C 588.924 266, 572.740 272.388, 557.159 287.366 C 547.020 297.111, 539.447 311.265, 538.270 322.669 C 537.784 327.382, 538.010 328.382, 540.052 330.555 C 541.338 331.924, 543.765 333.399, 545.445 333.833 C 548.344 334.581, 548.537 334.950, 549.227 341.061 C 550.751 354.548, 550.585 355.486, 545.083 364.458 C 542.287 369.017, 540 373.868, 540 375.239 C 540 379.016, 543.434 382.672, 547.732 383.470 C 553.780 384.592, 558 389.743, 558 396.003 C 558 397.709, 558.735 402.344, 559.633 406.303 C 560.919 411.972, 561.965 414.161, 564.559 416.613 C 569.786 421.555, 579.633 423.293, 587.163 420.604 L 590.826 419.295 590.251 422.898 C 589.176 429.624, 588.505 430.651, 580.831 437.326 C 571.168 445.731, 564.545 454.549, 558.236 467.408 C 548.080 488.110, 544.698 501.579, 544.655 521.500 C 544.631 532.535, 545.070 537.238, 546.728 543.708 C 548.692 551.369, 548.733 552.303, 547.348 557.708 C 545.070 566.598, 538.641 579.070, 531.358 588.726 C 524.197 598.221, 509.953 615, 509.054 615 C 508.748 615, 507.372 612.872, 505.998 610.272 C 504.624 607.671, 498.661 598.197, 492.746 589.219 C 484.004 575.948, 481.345 572.624, 478.528 571.447 C 475.690 570.261, 467.403 570, 432.642 570 C 393.818 570, 389.384 569.827, 380.360 567.958 C 371.056 566.032, 342.395 563.638, 340.757 564.650 C 340.341 564.907, 340 564.694, 340 564.176 C 340 563.657, 340.826 563.017, 341.836 562.753 C 342.846 562.489, 352.668 557.107, 363.662 550.792 C 382.340 540.065, 384.106 539.265, 390.576 538.604 C 405.189 537.110, 423.286 532.235, 435.277 526.562 C 447.919 520.582, 455.799 511.244, 453.136 505.400 C 452.099 503.124, 452.243 502.597, 454.353 500.937 C 457.629 498.360, 460 493.002, 460 488.178 C 460 484.519, 459.729 484.099, 456.978 483.495 C 454.845 483.027, 453.567 481.901, 452.633 479.666 C 449.623 472.464, 444.245 471.509, 431.235 475.868 C 426.186 477.559, 419.280 480.344, 415.888 482.057 C 410.732 484.659, 409.844 484.869, 410.474 483.335 C 415.435 471.241, 417.144 465.143, 416.701 461.126 C 416.149 456.128, 414.943 455.037, 409.946 455.015 C 402.432 454.983, 393.124 463.557, 377.189 485.190 L 367.967 497.709 353.733 505.800 C 345.904 510.249, 336.951 515.016, 333.838 516.393 L 328.178 518.896 326.549 511.198 C 325.654 506.964, 324.732 502.594, 324.501 501.486 C 324.186 499.980, 325.015 498.972, 327.790 497.486 C 330.687 495.935, 331.567 494.813, 331.805 492.365 C 332.532 484.888, 320.666 443.130, 313.092 426.507 C 307.282 413.757, 298.840 404.345, 285.325 395.550 C 278.174 390.897, 278.711 388.581, 287.137 387.734 C 300.241 386.417, 312 375.643, 312 364.953 C 312 362.393, 311.517 358.913, 310.927 357.220 C 309.481 353.074, 311.031 350.372, 315.991 348.387 C 319.973 346.794, 323 343.356, 323 340.426 C 323 338.232, 318.338 318.747, 316.361 312.676 C 314.828 307.970, 314.846 307.793, 317.080 305.415 C 318.339 304.074, 321.199 302.492, 323.435 301.897 C 333.200 299.303, 344 290.708, 344 285.532 C 344 282.130, 338.443 276.119, 333.233 273.885 C 330.848 272.863, 326.161 271.586, 322.816 271.048 C 319.472 270.509, 316.623 269.941, 316.486 269.784 C 316.349 269.628, 314.773 266.580, 312.984 263.012 C 306.382 249.845, 291.605 238.599, 275.540 234.515 C 267.002 232.345, 249.442 232.601, 240.162 235.032 M 546 237.729 C 542.494 239.064, 541.777 245.275, 544.934 246.965 C 546.076 247.576, 554.790 248, 566.212 248 C 582.100 248, 585.952 247.722, 587.777 246.443 C 590.389 244.614, 590.602 242.304, 588.443 239.223 C 586.921 237.049, 586.454 237.002, 567.193 237.079 C 556.362 237.122, 546.825 237.415, 546 237.729 M 249.581 244.001 C 233.267 246.924, 217.431 258.127, 211.816 270.717 C 210.159 274.434, 207.279 291.612, 208.165 292.498 C 208.350 292.683, 210.550 292.452, 213.053 291.985 C 215.556 291.517, 223.354 290.594, 230.382 289.933 C 242.845 288.761, 243.368 288.614, 251.684 283.952 C 261.891 278.231, 278.080 272.675, 291.046 270.443 C 296.246 269.548, 300.683 268.637, 300.906 268.418 C 301.130 268.199, 300.475 266.162, 299.450 263.890 C 295.567 255.278, 285.656 247.998, 274 245.195 C 267.333 243.592, 255.181 242.998, 249.581 244.001 M 594.507 277.551 C 591.211 278.383, 584.886 280.820, 580.453 282.966 C 566.444 289.747, 552.352 306.925, 550.422 319.575 L 549.800 323.651 564.150 324.860 C 572.043 325.526, 587.275 326.997, 598 328.130 C 621.253 330.586, 627.554 330.258, 649 325.478 C 657.525 323.578, 667.585 321.596, 671.356 321.072 C 675.127 320.549, 678.393 319.941, 678.613 319.721 C 679.227 319.106, 666.500 304.359, 658.466 296.377 C 643.789 281.792, 632.812 277.023, 612.500 276.404 C 604.026 276.146, 598.739 276.483, 594.507 277.551 M 289.100 280.492 C 281.544 282.196, 268.540 286.497, 265 288.462 L 262.500 289.849 265 290.804 C 276.230 295.090, 283.806 296.423, 297 296.436 C 308.755 296.447, 311.242 296.152, 316.238 294.157 C 322.567 291.629, 331.166 286.170, 331.753 284.308 C 333.007 280.325, 302.098 277.560, 289.100 280.492 M 605.500 290.178 C 595.948 295.930, 585 306.681, 585 310.310 C 585 312.239, 585.720 313.371, 587.448 314.158 C 589.684 315.177, 590.478 314.739, 596.648 309.085 C 600.362 305.682, 606.891 300.821, 611.157 298.284 C 615.422 295.747, 619.118 293.134, 619.370 292.479 C 620.203 290.306, 617.533 286.509, 614.977 286.231 C 613.473 286.068, 609.749 287.619, 605.500 290.178 M 573.369 294.227 C 564.744 302.178, 560.179 311.100, 562.998 314.498 C 563.684 315.324, 565.055 316, 566.046 316 C 567.712 316, 584.603 298.177, 585.746 295.213 C 586.482 293.306, 583.042 290, 580.323 290 C 578.929 290, 576.068 291.739, 573.369 294.227 M 632 296.873 C 613.995 302.011, 605.909 307.515, 607.434 313.594 C 608.237 316.794, 609.781 316.639, 617.919 312.541 C 625.180 308.884, 641.543 303.641, 649.346 302.471 C 655.020 301.620, 655.492 299.521, 650.480 297.427 C 644.751 295.033, 639.044 294.862, 632 296.873 M 262.339 300.560 C 261.485 302.784, 263.789 324.072, 265.497 329.748 C 267.473 336.315, 273.007 342.335, 278.603 344.004 C 282.541 345.179, 283.136 345.036, 293.423 340.418 C 302.447 336.367, 304.443 335.796, 306.057 336.803 C 308.028 338.035, 311.271 338.396, 312.181 337.486 C 312.734 336.932, 308.437 321.902, 305.218 313.136 C 302.872 306.746, 301.934 306.035, 295.822 306.015 C 287.948 305.990, 276.007 303.969, 269.267 301.523 C 264.116 299.653, 262.759 299.465, 262.339 300.560 M 386.082 309.558 C 380.948 319.540, 371.923 331.670, 365.792 336.829 C 361.955 340.057, 362.054 343, 366 343 C 367.650 343, 369 343.480, 369 344.067 C 369 345.589, 372.645 344.349, 378.378 340.877 C 381.061 339.252, 383.468 338.135, 383.727 338.394 C 383.986 338.653, 382.931 341.258, 381.383 344.182 C 379.653 347.449, 374.407 353.602, 367.783 360.134 C 361.853 365.983, 357 371.495, 357 372.384 C 357 373.997, 358.275 374.355, 363 374.071 C 367.167 373.821, 381.168 366.394, 386.750 361.473 C 389.637 358.928, 392 357.180, 392 357.589 C 392 357.999, 390.379 361.296, 388.397 364.917 C 382.153 376.325, 373.942 385.089, 360.947 394.217 C 351.642 400.753, 350.959 401.739, 354.021 404.218 C 355.935 405.768, 357.394 406.081, 360.634 405.637 C 365.684 404.944, 374.545 401.124, 380.640 397.010 C 384.952 394.100, 385.116 394.067, 384.480 396.235 C 382.861 401.761, 374.800 412.162, 368.945 416.281 C 355.861 425.484, 354.500 426.640, 354.500 428.551 C 354.500 430.119, 355.306 430.559, 358.623 430.801 C 364.487 431.230, 375.591 428.422, 381.729 424.958 C 384.611 423.331, 387.089 421.999, 387.235 421.999 C 387.381 421.998, 387.349 427.155, 387.165 433.458 C 386.831 444.882, 386.838 444.921, 389.260 445.529 C 390.597 445.865, 393.448 445.995, 395.595 445.820 L 399.500 445.500 399.784 434.156 C 399.995 425.720, 400.379 422.943, 401.284 423.322 C 401.953 423.603, 406.940 425.709, 412.367 428.001 C 417.862 430.322, 424.659 432.419, 427.706 432.733 C 433.007 433.281, 433.168 433.225, 432.839 430.953 C 432.634 429.532, 430.330 426.908, 427 424.300 C 411.555 412.207, 406.779 406.640, 404.528 398.106 C 403.787 395.298, 403.397 393, 403.660 393 C 403.924 393, 406.021 394.289, 408.320 395.865 C 413.835 399.645, 425.795 405.766, 429.235 406.570 C 431.556 407.113, 432.124 406.805, 432.985 404.540 C 433.543 403.071, 434 401.480, 434 401.003 C 434 400.526, 430.942 397.862, 427.206 395.083 C 421.230 390.640, 413.971 383.317, 407.940 375.651 C 405.657 372.748, 401 363.663, 401 362.111 C 401 361.507, 403.884 362.987, 407.408 365.400 C 417.924 372.600, 431 376.456, 431 372.358 C 431 371.455, 425.938 365.492, 419.750 359.108 C 412.370 351.493, 407.362 345.350, 405.191 341.250 C 401.923 335.077, 401.844 333.663, 404.921 336.409 C 410.891 341.737, 425 345.362, 425 341.567 C 425 340.779, 421.539 336.167, 417.309 331.317 C 408.831 321.598, 400.872 309.812, 398.357 303.250 C 397.013 299.742, 396.272 299.002, 394.114 299.012 C 391.807 299.023, 390.863 300.263, 386.082 309.558 M 236.227 309.788 C 232.521 313.250, 231 316.710, 231 321.679 C 231 326.480, 234.734 333, 237.484 333 C 239.988 333, 242 334.773, 242 336.979 C 242 339.327, 229.731 351.778, 226.658 352.550 C 224.321 353.136, 223.998 353.717, 223.980 357.358 C 223.969 359.636, 223.543 364.382, 223.034 367.904 C 222.282 373.108, 222.405 374.889, 223.691 377.404 C 226.490 382.877, 231.126 388.029, 237.805 393.084 C 244.813 398.390, 251.730 401, 258.780 401 C 264.596 401, 268.372 397.167, 270.082 389.524 L 271.290 384.124 267.280 379.312 C 259.126 369.530, 255.562 358.201, 253.983 337.051 C 252.146 312.453, 251.914 310.989, 249.604 309.478 C 248.447 308.721, 245.681 307.811, 243.457 307.456 C 239.895 306.887, 239.035 307.165, 236.227 309.788 M 129.954 311.086 C 129.340 312.233, 129.058 313.392, 129.328 313.661 C 129.597 313.930, 130.114 313.217, 130.476 312.075 C 131.742 308.086, 133.774 310.078, 138.843 320.278 C 142.777 328.193, 145.662 332.364, 151.397 338.424 C 160.102 347.623, 161.227 350, 156.874 350 C 152.952 350, 147.735 347.731, 142.662 343.819 C 139.229 341.172, 138.903 341.059, 140.801 343.174 C 145.223 348.100, 153.615 351.593, 159.858 351.106 C 162.645 350.889, 159.816 345.438, 153.575 339 C 146.310 331.506, 142.825 326.404, 138.034 316.250 C 134.421 308.591, 132.087 307.100, 129.954 311.086 M 286.586 310.905 C 284.877 312.794, 284.839 313.291, 286.146 316.735 C 287.795 321.081, 290.727 322.064, 294.558 319.554 C 297.296 317.760, 297.915 313.004, 295.655 311.128 C 292.885 308.830, 288.560 308.723, 286.586 310.905 M 124.663 322.502 C 120.141 331.287, 112.478 341.613, 108.130 344.780 C 103.926 347.842, 104.026 350, 108.373 350 C 111.750 350, 120.436 346.722, 121.463 345.060 C 121.763 344.574, 119.759 345.262, 117.009 346.588 C 112.540 348.744, 106 349.862, 106 348.469 C 106 348.178, 107.605 346.530, 109.566 344.808 C 114.876 340.146, 121.260 331.428, 125.428 323.148 C 127.463 319.104, 128.978 315.645, 128.794 315.461 C 128.611 315.277, 126.752 318.446, 124.663 322.502 M 558.012 337.250 C 558.018 337.387, 558.688 339.975, 559.500 343 C 562.198 353.051, 561.469 356.180, 552.217 374.250 C 552.006 374.663, 553.406 375, 555.328 375 C 557.981 375, 559.428 375.720, 561.342 377.995 C 562.728 379.642, 564.148 381.891, 564.498 382.992 C 565.190 385.175, 567.118 385.833, 574 386.236 C 578.275 386.487, 578.500 386.650, 578.500 389.500 C 578.500 392.258, 578.107 392.597, 573.632 393.701 C 570.954 394.362, 568.655 395.037, 568.523 395.201 C 567.656 396.275, 571.032 407.477, 572.736 409.180 C 576.670 413.115, 590.439 410.420, 595.854 404.656 C 601.301 398.857, 603.343 385.403, 600.583 373.500 C 598.657 365.190, 590.315 347.832, 585.743 342.620 C 582.670 339.116, 582.055 338.872, 574 337.969 C 565.935 337.064, 557.986 336.707, 558.012 337.250 M 600.172 339.750 C 600.359 340.163, 601.695 342.750, 603.142 345.500 C 607.027 352.883, 611.914 367.385, 613.318 375.697 L 614.550 382.992 617.025 378.409 C 619.172 374.435, 620.227 373.583, 624.979 371.989 C 631.625 369.761, 634 367.093, 634 361.857 C 634 356.852, 631.575 351, 629.501 351 C 627.122 351, 622.821 353.466, 620.076 356.405 C 616.057 360.706, 613 359.465, 613 353.533 C 613 348.650, 609.706 340.839, 607.253 339.906 C 604.371 338.810, 599.701 338.707, 600.172 339.750 M 138.563 345 C 140.119 350.851, 147.632 360.373, 153.603 364.064 C 155.478 365.223, 156.715 366.652, 156.352 367.240 C 155.953 367.886, 156.165 368.016, 156.889 367.568 C 158.325 366.681, 160.995 368.661, 160.604 370.323 C 160.452 370.970, 160.526 371.135, 160.768 370.689 C 161.230 369.835, 165 372.800, 165 374.017 C 165 375.371, 157.465 373.891, 152.265 371.515 C 149.385 370.200, 145.467 367.932, 143.558 366.476 C 137.879 362.145, 135.996 365.586, 140.454 372.147 C 141.804 374.133, 142.591 376.075, 142.204 376.463 C 141.817 376.850, 141.977 377.017, 142.560 376.833 C 143.799 376.444, 155.180 388.406, 154.476 389.358 C 154.214 389.711, 154.312 389.763, 154.692 389.474 C 155.073 389.185, 157.843 391.323, 160.848 394.224 C 164.864 398.102, 165.731 398.650, 164.119 396.293 C 162.912 394.530, 160.705 392.141, 159.213 390.985 C 157.721 389.829, 153.191 385.197, 149.147 380.692 C 137.936 368.204, 135.587 362.213, 144.340 368.437 C 149.319 371.977, 159.614 376, 163.694 376 C 168.007 376, 166.405 372.370, 159.844 367.278 C 149.070 358.915, 144.378 354.153, 141.095 348.250 C 139.337 345.088, 138.197 343.625, 138.563 345 M 120.976 349.261 C 119.667 351.593, 114.637 357.594, 109.798 362.598 C 101.610 371.065, 99.731 374.097, 101.856 375.411 C 102.326 375.702, 102.511 374.893, 102.266 373.613 C 101.910 371.747, 103.134 370.127, 108.449 365.432 C 114.639 359.964, 124.956 346.623, 123.850 345.517 C 123.578 345.245, 122.285 346.930, 120.976 349.261 M 567.647 351.837 C 566.456 353.154, 566.169 354.594, 566.635 356.923 C 567.450 361.002, 570.853 362.844, 574.500 361.182 C 576.532 360.256, 577 359.327, 577 356.221 C 577 354.120, 576.460 351.860, 575.800 351.200 C 574.004 349.404, 569.533 349.753, 567.647 351.837 M 121.612 365.820 C 121.274 366.366, 118.896 368.205, 116.327 369.907 C 113.759 371.608, 112.150 373, 112.752 373 C 113.354 373, 115.906 371.428, 118.423 369.507 C 120.941 367.585, 123 366.478, 123 367.046 C 123 369.879, 118.026 377.176, 112.190 382.905 C 108.602 386.428, 104.310 390.928, 102.652 392.905 C 100.994 394.882, 103.993 392.236, 109.315 387.024 C 119.517 377.033, 125.480 368.080, 123.350 365.950 C 122.626 365.226, 122.007 365.179, 121.612 365.820 M 203.707 387.269 C 185.939 396.915, 164.691 414.846, 158.493 425.422 C 154.254 432.655, 150.593 442.313, 145.111 460.722 C 138.399 483.264, 136.536 490.915, 133.598 508.007 C 128.629 536.915, 126.872 557.364, 126.679 588.500 L 126.500 617.500 130 617.377 C 131.925 617.309, 139.876 617.196, 147.669 617.127 L 161.839 617 168.536 606.250 C 177.063 592.563, 180.376 589, 184.574 589 C 188.165 589, 190.253 590.934, 190.245 594.253 C 190.240 596.283, 185.415 604.409, 171.811 625.300 C 169.233 629.260, 167.095 632.744, 167.061 633.042 C 167.028 633.339, 186.462 633.464, 210.250 633.319 C 234.038 633.173, 309.844 633.042, 378.710 633.027 L 503.920 633 498.024 623.750 C 494.781 618.663, 488.200 608.012, 483.399 600.082 C 478.599 592.152, 473.508 584.409, 472.086 582.876 L 469.500 580.088 438.748 579.721 L 407.997 579.353 413.427 584.193 C 419.652 589.741, 423 594.644, 423 598.213 C 423 601.587, 416.188 611.869, 411.679 615.301 C 402.600 622.212, 395.626 622.715, 383.662 617.319 C 375.647 613.705, 375.203 613.626, 359 612.946 C 349.925 612.566, 340.312 611.681, 337.639 610.981 C 332.564 609.651, 325.056 609.825, 292 612.043 C 282.925 612.651, 265.600 613.003, 253.500 612.825 C 228.516 612.456, 226.636 611.974, 217.234 603.520 C 208.454 595.627, 197.311 572.007, 191.062 548.047 L 188.318 537.524 183.954 536.779 C 181.554 536.370, 178.825 535.239, 177.890 534.267 C 176.033 532.338, 169.307 515.684, 163.554 498.773 C 160.661 490.268, 160.128 487.630, 160.981 486.035 C 162.164 483.824, 166.109 482.444, 168.559 483.384 C 170.522 484.138, 175.509 494.931, 181.086 510.500 C 183.450 517.100, 185.492 522.656, 185.623 522.847 C 186.396 523.974, 232.583 509.806, 236.777 507.156 C 237.778 506.523, 237.310 503.553, 234.613 493.424 C 226.765 463.951, 217.276 446.008, 205.060 437.542 C 198.535 433.020, 198.428 427.594, 204.869 427.777 C 213.963 428.036, 228.550 442.894, 235.991 459.480 C 241.858 472.556, 249.463 499.928, 250.167 510.500 C 250.452 514.782, 250.201 515.631, 248.418 516.415 C 246.371 517.314, 246.416 517.569, 251.164 531.915 C 257.275 550.379, 257.084 549.913, 257.772 548 C 258.069 547.175, 262.338 537.050, 267.258 525.500 C 272.178 513.950, 277.729 499.954, 279.593 494.398 C 283.613 482.419, 287 463.703, 287 453.466 C 287 441.141, 290.387 437.161, 294.204 445 C 297.140 451.030, 297.649 458.498, 296.283 475.500 C 294.448 498.347, 293.361 496.557, 306.500 492.332 C 312.550 490.387, 317.876 488.443, 318.336 488.012 C 319.499 486.921, 315.527 467.994, 311.399 454.957 C 304.726 433.883, 297.323 420.886, 285.642 409.735 C 279.370 403.746, 278.472 403.194, 277.832 404.926 C 276.512 408.494, 272.260 410.316, 264.157 410.785 C 252.882 411.437, 242.586 409.572, 236.150 405.710 C 229.829 401.917, 214.380 387.773, 213.488 384.961 C 213.145 383.883, 212.558 383.008, 212.183 383.019 C 211.807 383.029, 207.993 384.941, 203.707 387.269 M 624.690 388.565 C 622.607 389.980, 619.567 391.604, 617.934 392.173 C 615.580 392.993, 614.278 394.695, 611.653 400.374 C 609.832 404.316, 606.957 409.118, 605.264 411.047 C 602.451 414.250, 602.123 415.372, 601.466 424.027 C 600.687 434.288, 599.951 436.464, 596.285 439.347 C 592.554 442.282, 584.273 454.654, 582.034 460.637 C 579.499 467.415, 578.331 476.468, 579.870 477.419 C 582.333 478.942, 592.803 469.664, 603.476 456.500 C 613.482 444.160, 627.805 431.324, 635.462 427.835 C 637.272 427.011, 637.873 426.160, 637.414 425.072 C 634.188 417.430, 631.813 404.968, 630.745 390.077 C 630.430 385.680, 629.337 385.407, 624.690 388.565 M 116.098 392 C 112.671 394.750, 109.372 397, 108.767 397 C 108.162 397, 107.928 397.261, 108.248 397.581 C 109.109 398.443, 112.302 396.499, 117.697 391.828 C 121.360 388.658, 122.574 388.050, 122.810 389.268 C 123.603 393.346, 115.599 403.338, 107.250 408.694 C 104.049 410.747, 102.045 412.732, 102.116 413.781 C 102.223 415.371, 102.265 415.373, 102.678 413.809 C 102.923 412.878, 105.061 410.982, 107.429 409.595 C 112.248 406.771, 121.706 396.902, 123.095 393.251 C 124.230 390.266, 124.266 387, 123.164 387 C 122.704 387, 119.524 389.250, 116.098 392 M 141 391.966 C 142.887 393.372, 155.391 399.818, 158.599 401.038 C 160.116 401.615, 161 401.592, 161 400.975 C 161 400.439, 160.414 400, 159.697 400 C 158.981 400, 154.593 398.103, 149.947 395.784 C 140.435 391.037, 138.843 390.358, 141 391.966 M 139.247 415.019 C 145.426 418.899, 146.843 418.884, 141 415 C 138.525 413.355, 136.050 412.015, 135.500 412.023 C 134.950 412.031, 136.636 413.379, 139.247 415.019 M 124.336 430 C 124.336 434.125, 124.513 435.813, 124.728 433.750 C 124.944 431.688, 124.944 428.313, 124.728 426.250 C 124.513 424.188, 124.336 425.875, 124.336 430 M 95.264 450.718 C 96.784 450.947, 99.034 450.941, 100.264 450.704 C 101.494 450.467, 100.250 450.279, 97.500 450.286 C 94.750 450.294, 93.744 450.488, 95.264 450.718 M 105.728 450.722 C 107.503 450.943, 110.653 450.946, 112.728 450.730 C 114.802 450.513, 113.350 450.333, 109.500 450.328 C 105.650 450.324, 103.952 450.501, 105.728 450.722 M 607.055 468.485 C 596.858 481.137, 592.312 485.554, 587.355 487.625 C 580.693 490.408, 573.501 488.674, 570.804 483.633 C 570.190 482.487, 569.421 479.078, 569.094 476.057 L 568.500 470.564 564.332 481.032 C 557.358 498.551, 556.532 502.628, 556.543 519.500 C 556.555 536.293, 558.038 543.440, 564.623 558.416 C 568.535 567.314, 574.819 592.190, 578.538 613.500 C 582.501 636.204, 580.879 635.493, 593.158 619.908 C 605.464 604.287, 611.944 594.494, 614.601 587.500 C 616.305 583.013, 616.494 579.681, 616.441 555 C 616.392 532.454, 615.963 524.173, 614.058 509.028 C 611.408 487.955, 611.623 474.857, 614.800 463.750 C 615.862 460.038, 616.637 457, 616.522 457 C 616.406 457, 612.146 462.168, 607.055 468.485 M 398.350 476.321 C 395.683 479.247, 389.530 487.368, 384.677 494.368 C 379.556 501.753, 374.189 508.300, 371.885 509.968 C 367.613 513.063, 329.771 531.979, 324.010 533.900 C 321.109 534.867, 320.333 534.808, 319.414 533.552 C 318.306 532.036, 314 509.397, 314 505.084 C 314 503.611, 313.534 502.965, 312.702 503.284 C 311.989 503.558, 307.826 504.760, 303.452 505.955 C 288.856 509.945, 289.151 509.794, 288.034 513.818 C 286.413 519.655, 286.818 525.801, 289.478 535.729 C 292.278 546.181, 296.938 556.111, 300.662 559.562 C 304.201 562.842, 313.324 564.642, 317.978 562.978 C 321.538 561.705, 351.951 544.408, 366.272 535.511 C 373.873 530.789, 374.424 530.620, 391.272 527.861 C 415.433 523.903, 430.450 518.958, 438.327 512.366 C 442.003 509.289, 440.731 509.383, 431.720 512.852 C 421.053 516.960, 419.403 517.260, 417.572 515.429 C 413.943 511.800, 415.386 510.407, 428.390 504.995 C 433.751 502.764, 439.868 499.846, 441.984 498.510 C 446.365 495.744, 448.502 493.195, 445.414 494.418 C 444.361 494.835, 440.350 496.314, 436.500 497.704 C 432.650 499.094, 426.698 501.787, 423.274 503.688 C 416.007 507.723, 412.647 507.771, 412.193 503.845 C 411.774 500.224, 415.656 497.496, 429.734 491.516 C 435.912 488.891, 441.461 486.149, 442.064 485.423 C 443.914 483.194, 425.597 488.611, 412.924 494.040 C 400.865 499.207, 398.205 499.805, 396.200 497.800 C 394.090 495.690, 394.892 491.506, 399.396 481.128 C 401.814 475.558, 403.660 471, 403.497 471 C 403.334 471, 401.018 473.394, 398.350 476.321 M 226 523.916 C 221.875 525.439, 213.970 527.945, 208.434 529.484 L 198.367 532.282 199.761 536.891 C 208.330 565.237, 214.784 580.879, 222.041 590.897 C 225.577 595.779, 232.377 599.880, 239.853 601.640 C 246.456 603.194, 265.089 603.379, 283.500 602.073 C 330.932 598.709, 335.629 598.569, 341.940 600.324 C 346.142 601.492, 351.860 602, 360.803 602 C 375.310 602, 381.030 603.260, 388.259 608.048 C 391.335 610.085, 393.877 611.031, 395.713 610.820 C 398.471 610.503, 398.449 610.461, 393.574 606.725 C 389.178 603.357, 382.095 600.577, 372.779 598.564 C 371.282 598.241, 369.538 597.005, 368.902 595.817 C 366.039 590.467, 376.397 589.559, 385 594.407 C 393.215 599.037, 399.094 602.085, 401.765 603.101 L 404.404 604.104 402.452 601.936 C 399.877 599.076, 391.030 594.030, 388.500 593.978 C 383.894 593.883, 381.464 589.520, 384.578 586.935 C 385.902 585.836, 387.711 586.150, 395.828 588.888 C 401.148 590.682, 406.175 592.368, 407 592.636 C 407.825 592.903, 407.150 591.969, 405.500 590.560 C 397.995 584.152, 375.655 577.798, 354.532 576.064 C 347.914 575.521, 322.475 574.841, 298 574.554 C 258.079 574.086, 253.375 573.861, 252.285 572.373 C 250.845 570.407, 244.371 550.983, 239.995 535.500 C 238.284 529.450, 236.656 523.712, 236.375 522.750 C 235.722 520.507, 235.019 520.586, 226 523.916 M 273.008 543.212 C 269.349 551.084, 265.556 562.008, 266.287 562.572 C 266.667 562.865, 288 563.793, 288 563.517 C 288 563.369, 286.908 560.779, 285.573 557.761 C 284.238 554.742, 282.139 548.499, 280.909 543.886 C 279.678 539.274, 278.369 535.146, 277.998 534.712 C 277.628 534.279, 275.382 538.104, 273.008 543.212 M 164.330 649.136 C 164.664 651.960, 165.093 654.427, 165.283 654.617 C 165.528 654.861, 476.346 655.228, 506.250 655.019 C 508.914 655.001, 509 654.829, 509 649.500 L 509 644 336.361 644 L 163.721 644 164.330 649.136" stroke="none" fill="#524926" fill-rule="evenodd"/><path d="M 0 375.001 L 0 750.003 375.250 749.751 L 750.500 749.500 750.751 374.750 L 751.003 0 375.501 0 L 0 0 0 375.001 M 0.495 375.500 C 0.495 581.750, 0.610 666.274, 0.750 563.331 C 0.890 460.389, 0.890 291.639, 0.750 188.331 C 0.610 85.024, 0.495 169.250, 0.495 375.500 M 529.637 30.405 C 521.999 33.246, 517 40.155, 517 47.870 L 517 51.804 503.704 52.152 C 493.700 52.414, 489.800 52.894, 487.954 54.091 C 485.934 55.400, 481.998 55.698, 465.709 55.774 C 442.842 55.881, 438.840 56.748, 431.538 63.176 C 428.996 65.413, 425.923 69.101, 424.708 71.372 L 422.500 75.500 422.500 186.500 C 422.500 280.172, 422.725 298.275, 423.941 302.467 C 425.677 308.452, 431.296 314.456, 438.500 318.024 L 443.500 320.500 485.700 320.800 C 527.113 321.095, 527.938 321.062, 529.950 319.050 C 532.530 316.470, 532.543 314.543, 530 312 C 528.069 310.069, 526.663 310, 489.250 309.994 C 465.680 309.991, 449.043 309.584, 446.781 308.956 C 444.736 308.388, 441.682 306.762, 439.995 305.342 C 433.607 299.967, 434 307.703, 434.004 187.300 C 434.007 80.067, 434.053 77.425, 435.965 74.290 C 437.041 72.525, 439.852 70.050, 442.211 68.791 C 446.158 66.683, 447.979 66.474, 465.047 66.175 L 483.594 65.850 483.547 71.175 L 483.500 76.500 469.659 77 C 456.619 77.471, 455.709 77.636, 453.909 79.861 C 452.057 82.151, 452 85.377, 452 187.555 L 452 292.888 454.414 295.694 L 456.828 298.500 496.387 298.500 L 535.945 298.500 538.216 296.229 C 540.346 294.099, 540.391 293.788, 538.955 291.229 L 537.424 288.500 500.212 288.238 L 463 287.976 463 187.988 L 463 88 473.500 88 C 483.848 88, 484 88.034, 484 90.345 C 484 97.213, 492.529 98.263, 544.780 97.830 C 587.933 97.472, 588.572 97.388, 589.661 91.946 L 590.250 89 600.074 89 L 609.897 89 610.199 103.750 C 610.364 111.862, 610.500 149.882, 610.500 188.239 C 610.500 245.391, 610.740 258.069, 611.832 258.489 C 613.871 259.272, 619.345 259.068, 620.783 258.155 C 621.816 257.500, 622.011 240.091, 621.783 169.213 C 621.504 82.425, 621.470 81.062, 619.500 79.575 C 617.947 78.401, 614.430 78.057, 603.750 78.032 L 590 78 590 72.443 L 590 66.886 610.430 67.193 C 633.198 67.535, 634.209 67.820, 638.500 75.105 C 640.452 78.418, 640.512 80.769, 641 172.462 L 641.500 266.424 644.157 267.915 C 646.294 269.114, 647.321 269.175, 649.407 268.224 L 652 267.043 652 173.559 C 652 80.749, 651.985 80.034, 649.879 74.407 C 647.257 67.399, 641.925 61.332, 636 58.618 C 632.003 56.786, 629.101 56.513, 610.059 56.175 C 592.275 55.860, 588.189 55.514, 586.105 54.148 C 584.176 52.883, 580.532 52.420, 570.409 52.155 L 557.227 51.809 556.807 46.002 C 556.092 36.119, 549.781 30.340, 538.682 29.405 C 535.573 29.143, 531.955 29.543, 529.637 30.405 M 532.206 41.048 C 529.073 42.305, 527 47.769, 527 54.768 C 527 57.976, 526.460 61.140, 525.800 61.800 C 524.971 62.629, 519.860 63, 509.269 63 L 493.938 63 494.219 75.250 C 494.374 81.987, 494.837 87.388, 495.250 87.250 C 495.663 87.112, 514.788 87, 537.750 87 L 579.500 87 579.500 75 L 579.500 63 566 62.882 C 558.575 62.817, 551.150 62.476, 549.500 62.124 L 546.500 61.485 546.212 52.785 C 545.946 44.777, 545.717 43.922, 543.327 42.042 C 540.602 39.899, 536.076 39.494, 532.206 41.048 M 512.243 133.523 L 500.730 145.047 494.939 139.523 C 489.103 133.957, 485.697 132.703, 483.200 135.200 C 480.331 138.069, 481.908 141.279, 490.314 149.686 C 496.318 155.689, 499.326 158, 501.139 158 C 503.042 158, 506.924 154.672, 517.180 144.250 C 524.622 136.688, 531.025 129.504, 531.410 128.288 C 532.500 124.846, 530.432 122, 526.843 122 C 524.238 122, 521.957 123.800, 512.243 133.523 M 544.223 138.557 C 542.982 139.426, 542 141.167, 542 142.500 C 542 147.378, 544.714 148, 566 148 C 587.189 148, 590 147.367, 590 142.598 C 590 137.471, 588.012 137, 566.394 137 C 549.957 137, 546.054 137.274, 544.223 138.557 M 511.589 188.946 L 499.500 200.893 493.838 195.446 C 487.020 188.889, 483.031 188.098, 481.038 192.909 C 479.451 196.739, 480.259 198.115, 488.855 206.224 C 495.812 212.787, 500.395 214.998, 503.472 213.276 C 504.323 212.799, 511.090 206.387, 518.510 199.027 C 529.352 188.271, 532 185.102, 532 182.879 C 532 179.866, 528.888 177, 525.617 177 C 524.482 177, 518.668 181.951, 511.589 188.946 M 544.020 188.980 C 541.723 191.277, 541.366 195.229, 543.309 196.841 C 544.139 197.530, 552.458 198.020, 566.040 198.179 L 587.463 198.429 588.981 195.715 C 590.341 193.284, 590.339 192.713, 588.962 190.250 L 587.425 187.500 566.733 187.230 C 547.111 186.974, 545.936 187.064, 544.020 188.980 M 511.555 240.989 L 500.416 251.979 494.489 245.989 C 488.224 239.658, 485.490 238.696, 482.655 241.829 C 479.595 245.210, 480.691 247.551, 489.250 255.912 C 501.207 267.592, 501.001 267.630, 517.798 250.667 C 525.059 243.334, 531 236.554, 531 235.601 C 531 232.136, 529.022 230, 525.811 230 C 523.185 230, 520.935 231.734, 511.555 240.989 M 240.162 235.032 C 231.263 237.363, 220.703 242.918, 213.967 248.810 C 207.989 254.040, 200.624 264.093, 198.349 270.130 C 196.297 275.577, 195.953 296.873, 197.682 311.500 C 199 322.651, 200.723 328.114, 207.303 342 C 212.660 353.305, 213.423 356.462, 212.527 363.627 C 211.854 369.017, 211.819 369.063, 206.175 371.921 C 193.157 378.513, 166.819 397.463, 157.605 406.867 L 152.711 411.862 148.689 407.681 C 146.477 405.382, 143.570 401.109, 142.231 398.186 C 140.891 395.263, 139.610 393.056, 139.385 393.281 C 138.386 394.281, 143.402 403.231, 147.544 407.838 L 152.093 412.897 148.043 420.043 C 138.405 437.052, 131.805 457.048, 123.607 494.073 C 117.314 522.491, 114.085 558.684, 114.022 601.515 L 114 616.529 96.250 616.835 C 77.412 617.160, 74.815 617.465, 71.250 619.773 C 68.216 621.738, 68.194 626.498, 71.211 628.113 C 72.873 629.002, 83.331 629.119, 113.302 628.582 C 135.235 628.189, 153.752 627.649, 154.450 627.381 C 155.470 626.989, 155.463 628.326, 154.412 634.197 C 152.619 644.217, 152.637 658.196, 154.449 662.532 L 155.898 666 173.377 666 L 190.856 666 191.178 680.898 C 191.458 693.869, 191.746 696.068, 193.405 697.898 C 195.918 700.671, 199.605 700.606, 201.127 697.763 C 201.826 696.456, 202.521 689.387, 202.798 680.763 L 203.272 666 258.886 665.946 C 289.474 665.916, 350.050 665.850, 393.500 665.798 L 472.500 665.704 472.778 680.567 C 473.033 694.182, 473.236 695.623, 475.202 697.715 C 477.654 700.325, 481.182 700.691, 482.981 698.523 C 483.818 697.514, 484.254 692.117, 484.354 681.531 L 484.500 666.016 499.139 666.008 C 517.039 665.998, 517.343 665.836, 519.561 655.096 C 521.263 646.861, 521.035 644.721, 517.348 634.247 L 514.795 626.994 524.934 616.374 C 538.897 601.749, 550.259 585.091, 554.498 573.029 L 555.738 569.500 557.399 575 C 558.312 578.025, 560.038 585.272, 561.235 591.104 L 563.411 601.707 557.260 608.604 C 553.877 612.397, 546.070 620, 539.910 625.500 C 523.854 639.837, 524 639.684, 524 642.232 C 524 645.551, 526.732 649, 529.361 649 C 533.127 649, 540.743 643.395, 552.904 631.673 C 559.280 625.528, 564.647 620.162, 564.831 619.750 C 565.555 618.132, 567 619.120, 567 621.234 C 567 622.463, 567.969 628.490, 569.152 634.627 L 571.305 645.785 566.869 650.143 C 564.429 652.539, 558.960 657.815, 554.716 661.866 C 550.472 665.918, 547 669.994, 547 670.925 C 547 673.074, 548.769 675.302, 552.177 677.449 L 554.854 679.135 564.478 670.443 C 584.844 652.048, 611.323 621.835, 620.909 606.051 C 628.877 592.933, 629.433 589.498, 628.653 558.209 C 628.287 543.519, 627.310 523.175, 626.482 513 C 623.757 479.512, 624.463 467.030, 629.579 458.283 C 632.852 452.688, 640.713 445.095, 646.425 442.011 L 651.036 439.522 655.667 441.979 C 666.060 447.493, 675.270 464.632, 679.731 486.761 C 681.012 493.117, 681.366 505.535, 681.713 556.250 L 682.136 618 672.068 618 C 666.531 618, 662 617.765, 662 617.479 C 662 617.192, 663.130 615.250, 664.511 613.163 C 671.299 602.905, 672.864 590.152, 673.244 542 L 673.500 509.500 671.168 505.750 C 668.392 501.285, 665.744 500.935, 663.273 504.705 C 661.699 507.107, 661.424 511.287, 660.820 541.955 C 660.105 578.237, 658.657 593.475, 655.178 601.320 C 650.046 612.893, 626.105 639.415, 608 653.584 C 598.625 660.921, 598.038 661.568, 598.015 664.576 C 597.997 667.059, 601.915 671, 604.401 671 C 608.165 671, 622.132 659.833, 637.481 644.553 L 653.500 628.605 683.226 628.548 C 712.497 628.493, 712.987 628.458, 715.156 626.288 C 717.051 624.393, 717.197 623.729, 716.201 621.542 C 715.127 619.185, 714.549 618.999, 708.271 618.989 C 704.547 618.983, 699.841 618.704, 697.813 618.368 L 694.126 617.759 693.744 557.629 C 693.326 491.728, 693.087 488.613, 687.013 469.748 C 681.265 451.894, 675.112 443.378, 656.548 427.587 C 649.952 421.976, 647.009 417.710, 647.004 413.750 C 647.002 412.238, 647.204 411, 647.452 411 C 647.701 411, 651.568 414.488, 656.046 418.750 C 666.057 428.281, 671.913 432.304, 680.455 435.519 C 691.301 439.602, 695.292 438.489, 690.568 432.700 C 683.539 424.087, 683.030 422.847, 681.985 411.821 C 681.435 406.014, 680.171 398.798, 679.177 395.785 C 675.413 384.376, 668.278 375.334, 660.359 371.940 L 655.959 370.054 667.010 359.902 C 681.476 346.611, 694 331.188, 694 326.662 C 694 323.157, 690.757 317.435, 683.202 307.615 C 660.120 277.609, 640.059 266, 611.287 266 C 588.924 266, 572.740 272.388, 557.159 287.366 C 547.020 297.111, 539.447 311.265, 538.270 322.669 C 537.784 327.382, 538.010 328.382, 540.052 330.555 C 541.338 331.924, 543.765 333.399, 545.445 333.833 C 548.344 334.581, 548.537 334.950, 549.227 341.061 C 550.751 354.548, 550.585 355.486, 545.083 364.458 C 542.287 369.017, 540 373.868, 540 375.239 C 540 379.016, 543.434 382.672, 547.732 383.470 C 553.780 384.592, 558 389.743, 558 396.003 C 558 397.709, 558.735 402.344, 559.633 406.303 C 560.919 411.972, 561.965 414.161, 564.559 416.613 C 569.786 421.555, 579.633 423.293, 587.163 420.604 L 590.826 419.295 590.251 422.898 C 589.176 429.624, 588.505 430.651, 580.831 437.326 C 571.168 445.731, 564.545 454.549, 558.236 467.408 C 548.080 488.110, 544.698 501.579, 544.655 521.500 C 544.631 532.535, 545.070 537.238, 546.728 543.708 C 548.692 551.369, 548.733 552.303, 547.348 557.708 C 545.070 566.598, 538.641 579.070, 531.358 588.726 C 524.197 598.221, 509.953 615, 509.054 615 C 508.748 615, 507.372 612.872, 505.998 610.272 C 504.624 607.671, 498.661 598.197, 492.746 589.219 C 484.004 575.948, 481.345 572.624, 478.528 571.447 C 475.690 570.261, 467.403 570, 432.642 570 C 393.818 570, 389.384 569.827, 380.360 567.958 C 371.056 566.032, 342.395 563.638, 340.757 564.650 C 340.341 564.907, 340 564.694, 340 564.176 C 340 563.657, 340.826 563.017, 341.836 562.753 C 342.846 562.489, 352.668 557.107, 363.662 550.792 C 382.340 540.065, 384.106 539.265, 390.576 538.604 C 405.189 537.110, 423.286 532.235, 435.277 526.562 C 447.919 520.582, 455.799 511.244, 453.136 505.400 C 452.099 503.124, 452.243 502.597, 454.353 500.937 C 457.629 498.360, 460 493.002, 460 488.178 C 460 484.519, 459.729 484.099, 456.978 483.495 C 454.845 483.027, 453.567 481.901, 452.633 479.666 C 449.623 472.464, 444.245 471.509, 431.235 475.868 C 426.186 477.559, 419.280 480.344, 415.888 482.057 C 410.732 484.659, 409.844 484.869, 410.474 483.335 C 415.435 471.241, 417.144 465.143, 416.701 461.126 C 416.149 456.128, 414.943 455.037, 409.946 455.015 C 402.432 454.983, 393.124 463.557, 377.189 485.190 L 367.967 497.709 353.733 505.800 C 345.904 510.249, 336.951 515.016, 333.838 516.393 L 328.178 518.896 326.549 511.198 C 325.654 506.964, 324.732 502.594, 324.501 501.486 C 324.186 499.980, 325.015 498.972, 327.790 497.486 C 330.687 495.935, 331.567 494.813, 331.805 492.365 C 332.532 484.888, 320.666 443.130, 313.092 426.507 C 307.282 413.757, 298.840 404.345, 285.325 395.550 C 278.174 390.897, 278.711 388.581, 287.137 387.734 C 300.241 386.417, 312 375.643, 312 364.953 C 312 362.393, 311.517 358.913, 310.927 357.220 C 309.481 353.074, 311.031 350.372, 315.991 348.387 C 319.973 346.794, 323 343.356, 323 340.426 C 323 338.232, 318.338 318.747, 316.361 312.676 C 314.828 307.970, 314.846 307.793, 317.080 305.415 C 318.339 304.074, 321.199 302.492, 323.435 301.897 C 333.200 299.303, 344 290.708, 344 285.532 C 344 282.130, 338.443 276.119, 333.233 273.885 C 330.848 272.863, 326.161 271.586, 322.816 271.048 C 319.472 270.509, 316.623 269.941, 316.486 269.784 C 316.349 269.628, 314.773 266.580, 312.984 263.012 C 306.382 249.845, 291.605 238.599, 275.540 234.515 C 267.002 232.345, 249.442 232.601, 240.162 235.032 M 546 237.729 C 542.494 239.064, 541.777 245.275, 544.934 246.965 C 546.076 247.576, 554.790 248, 566.212 248 C 582.100 248, 585.952 247.722, 587.777 246.443 C 590.389 244.614, 590.602 242.304, 588.443 239.223 C 586.921 237.049, 586.454 237.002, 567.193 237.079 C 556.362 237.122, 546.825 237.415, 546 237.729 M 249.581 244.001 C 233.267 246.924, 217.431 258.127, 211.816 270.717 C 210.159 274.434, 207.279 291.612, 208.165 292.498 C 208.350 292.683, 210.550 292.452, 213.053 291.985 C 215.556 291.517, 223.354 290.594, 230.382 289.933 C 242.845 288.761, 243.368 288.614, 251.684 283.952 C 261.891 278.231, 278.080 272.675, 291.046 270.443 C 296.246 269.548, 300.683 268.637, 300.906 268.418 C 301.130 268.199, 300.475 266.162, 299.450 263.890 C 295.567 255.278, 285.656 247.998, 274 245.195 C 267.333 243.592, 255.181 242.998, 249.581 244.001 M 594.507 277.551 C 591.211 278.383, 584.886 280.820, 580.453 282.966 C 566.444 289.747, 552.352 306.925, 550.422 319.575 L 549.800 323.651 564.150 324.860 C 572.043 325.526, 587.275 326.997, 598 328.130 C 621.253 330.586, 627.554 330.258, 649 325.478 C 657.525 323.578, 667.585 321.596, 671.356 321.072 C 675.127 320.549, 678.393 319.941, 678.613 319.721 C 679.227 319.106, 666.500 304.359, 658.466 296.377 C 643.789 281.792, 632.812 277.023, 612.500 276.404 C 604.026 276.146, 598.739 276.483, 594.507 277.551 M 289.100 280.492 C 281.544 282.196, 268.540 286.497, 265 288.462 L 262.500 289.849 265 290.804 C 276.230 295.090, 283.806 296.423, 297 296.436 C 308.755 296.447, 311.242 296.152, 316.238 294.157 C 322.567 291.629, 331.166 286.170, 331.753 284.308 C 333.007 280.325, 302.098 277.560, 289.100 280.492 M 605.500 290.178 C 595.948 295.930, 585 306.681, 585 310.310 C 585 312.239, 585.720 313.371, 587.448 314.158 C 589.684 315.177, 590.478 314.739, 596.648 309.085 C 600.362 305.682, 606.891 300.821, 611.157 298.284 C 615.422 295.747, 619.118 293.134, 619.370 292.479 C 620.203 290.306, 617.533 286.509, 614.977 286.231 C 613.473 286.068, 609.749 287.619, 605.500 290.178 M 573.369 294.227 C 564.744 302.178, 560.179 311.100, 562.998 314.498 C 563.684 315.324, 565.055 316, 566.046 316 C 567.712 316, 584.603 298.177, 585.746 295.213 C 586.482 293.306, 583.042 290, 580.323 290 C 578.929 290, 576.068 291.739, 573.369 294.227 M 632 296.873 C 613.995 302.011, 605.909 307.515, 607.434 313.594 C 608.237 316.794, 609.781 316.639, 617.919 312.541 C 625.180 308.884, 641.543 303.641, 649.346 302.471 C 655.020 301.620, 655.492 299.521, 650.480 297.427 C 644.751 295.033, 639.044 294.862, 632 296.873 M 262.339 300.560 C 261.485 302.784, 263.789 324.072, 265.497 329.748 C 267.473 336.315, 273.007 342.335, 278.603 344.004 C 282.541 345.179, 283.136 345.036, 293.423 340.418 C 302.447 336.367, 304.443 335.796, 306.057 336.803 C 308.028 338.035, 311.271 338.396, 312.181 337.486 C 312.734 336.932, 308.437 321.902, 305.218 313.136 C 302.872 306.746, 301.934 306.035, 295.822 306.015 C 287.948 305.990, 276.007 303.969, 269.267 301.523 C 264.116 299.653, 262.759 299.465, 262.339 300.560 M 386.082 309.558 C 380.948 319.540, 371.923 331.670, 365.792 336.829 C 361.955 340.057, 362.054 343, 366 343 C 367.650 343, 369 343.480, 369 344.067 C 369 345.589, 372.645 344.349, 378.378 340.877 C 381.061 339.252, 383.468 338.135, 383.727 338.394 C 383.986 338.653, 382.931 341.258, 381.383 344.182 C 379.653 347.449, 374.407 353.602, 367.783 360.134 C 361.853 365.983, 357 371.495, 357 372.384 C 357 373.997, 358.275 374.355, 363 374.071 C 367.167 373.821, 381.168 366.394, 386.750 361.473 C 389.637 358.928, 392 357.180, 392 357.589 C 392 357.999, 390.379 361.296, 388.397 364.917 C 382.153 376.325, 373.942 385.089, 360.947 394.217 C 351.642 400.753, 350.959 401.739, 354.021 404.218 C 355.935 405.768, 357.394 406.081, 360.634 405.637 C 365.684 404.944, 374.545 401.124, 380.640 397.010 C 384.952 394.100, 385.116 394.067, 384.480 396.235 C 382.861 401.761, 374.800 412.162, 368.945 416.281 C 355.861 425.484, 354.500 426.640, 354.500 428.551 C 354.500 430.119, 355.306 430.559, 358.623 430.801 C 364.487 431.230, 375.591 428.422, 381.729 424.958 C 384.611 423.331, 387.089 421.999, 387.235 421.999 C 387.381 421.998, 387.349 427.155, 387.165 433.458 C 386.831 444.882, 386.838 444.921, 389.260 445.529 C 390.597 445.865, 393.448 445.995, 395.595 445.820 L 399.500 445.500 399.784 434.156 C 399.995 425.720, 400.379 422.943, 401.284 423.322 C 401.953 423.603, 406.940 425.709, 412.367 428.001 C 417.862 430.322, 424.659 432.419, 427.706 432.733 C 433.007 433.281, 433.168 433.225, 432.839 430.953 C 432.634 429.532, 430.330 426.908, 427 424.300 C 411.555 412.207, 406.779 406.640, 404.528 398.106 C 403.787 395.298, 403.397 393, 403.660 393 C 403.924 393, 406.021 394.289, 408.320 395.865 C 413.835 399.645, 425.795 405.766, 429.235 406.570 C 431.556 407.113, 432.124 406.805, 432.985 404.540 C 433.543 403.071, 434 401.480, 434 401.003 C 434 400.526, 430.942 397.862, 427.206 395.083 C 421.230 390.640, 413.971 383.317, 407.940 375.651 C 405.657 372.748, 401 363.663, 401 362.111 C 401 361.507, 403.884 362.987, 407.408 365.400 C 417.924 372.600, 431 376.456, 431 372.358 C 431 371.455, 425.938 365.492, 419.750 359.108 C 412.370 351.493, 407.362 345.350, 405.191 341.250 C 401.923 335.077, 401.844 333.663, 404.921 336.409 C 410.891 341.737, 425 345.362, 425 341.567 C 425 340.779, 421.539 336.167, 417.309 331.317 C 408.831 321.598, 400.872 309.812, 398.357 303.250 C 397.013 299.742, 396.272 299.002, 394.114 299.012 C 391.807 299.023, 390.863 300.263, 386.082 309.558 M 236.227 309.788 C 232.521 313.250, 231 316.710, 231 321.679 C 231 326.480, 234.734 333, 237.484 333 C 239.988 333, 242 334.773, 242 336.979 C 242 339.327, 229.731 351.778, 226.658 352.550 C 224.321 353.136, 223.998 353.717, 223.980 357.358 C 223.969 359.636, 223.543 364.382, 223.034 367.904 C 222.282 373.108, 222.405 374.889, 223.691 377.404 C 226.490 382.877, 231.126 388.029, 237.805 393.084 C 244.813 398.390, 251.730 401, 258.780 401 C 264.596 401, 268.372 397.167, 270.082 389.524 L 271.290 384.124 267.280 379.312 C 259.126 369.530, 255.562 358.201, 253.983 337.051 C 252.146 312.453, 251.914 310.989, 249.604 309.478 C 248.447 308.721, 245.681 307.811, 243.457 307.456 C 239.895 306.887, 239.035 307.165, 236.227 309.788 M 129.954 311.086 C 129.340 312.233, 129.058 313.392, 129.328 313.661 C 129.597 313.930, 130.114 313.217, 130.476 312.075 C 131.742 308.086, 133.774 310.078, 138.843 320.278 C 142.777 328.193, 145.662 332.364, 151.397 338.424 C 160.102 347.623, 161.227 350, 156.874 350 C 152.952 350, 147.735 347.731, 142.662 343.819 C 139.229 341.172, 138.903 341.059, 140.801 343.174 C 145.223 348.100, 153.615 351.593, 159.858 351.106 C 162.645 350.889, 159.816 345.438, 153.575 339 C 146.310 331.506, 142.825 326.404, 138.034 316.250 C 134.421 308.591, 132.087 307.100, 129.954 311.086 M 286.586 310.905 C 284.877 312.794, 284.839 313.291, 286.146 316.735 C 287.795 321.081, 290.727 322.064, 294.558 319.554 C 297.296 317.760, 297.915 313.004, 295.655 311.128 C 292.885 308.830, 288.560 308.723, 286.586 310.905 M 124.663 322.502 C 120.141 331.287, 112.478 341.613, 108.130 344.780 C 103.926 347.842, 104.026 350, 108.373 350 C 111.750 350, 120.436 346.722, 121.463 345.060 C 121.763 344.574, 119.759 345.262, 117.009 346.588 C 112.540 348.744, 106 349.862, 106 348.469 C 106 348.178, 107.605 346.530, 109.566 344.808 C 114.876 340.146, 121.260 331.428, 125.428 323.148 C 127.463 319.104, 128.978 315.645, 128.794 315.461 C 128.611 315.277, 126.752 318.446, 124.663 322.502 M 558.012 337.250 C 558.018 337.387, 558.688 339.975, 559.500 343 C 562.198 353.051, 561.469 356.180, 552.217 374.250 C 552.006 374.663, 553.406 375, 555.328 375 C 557.981 375, 559.428 375.720, 561.342 377.995 C 562.728 379.642, 564.148 381.891, 564.498 382.992 C 565.190 385.175, 567.118 385.833, 574 386.236 C 578.275 386.487, 578.500 386.650, 578.500 389.500 C 578.500 392.258, 578.107 392.597, 573.632 393.701 C 570.954 394.362, 568.655 395.037, 568.523 395.201 C 567.656 396.275, 571.032 407.477, 572.736 409.180 C 576.670 413.115, 590.439 410.420, 595.854 404.656 C 601.301 398.857, 603.343 385.403, 600.583 373.500 C 598.657 365.190, 590.315 347.832, 585.743 342.620 C 582.670 339.116, 582.055 338.872, 574 337.969 C 565.935 337.064, 557.986 336.707, 558.012 337.250 M 600.172 339.750 C 600.359 340.163, 601.695 342.750, 603.142 345.500 C 607.027 352.883, 611.914 367.385, 613.318 375.697 L 614.550 382.992 617.025 378.409 C 619.172 374.435, 620.227 373.583, 624.979 371.989 C 631.625 369.761, 634 367.093, 634 361.857 C 634 356.852, 631.575 351, 629.501 351 C 627.122 351, 622.821 353.466, 620.076 356.405 C 616.057 360.706, 613 359.465, 613 353.533 C 613 348.650, 609.706 340.839, 607.253 339.906 C 604.371 338.810, 599.701 338.707, 600.172 339.750 M 138.563 345 C 140.119 350.851, 147.632 360.373, 153.603 364.064 C 155.478 365.223, 156.715 366.652, 156.352 367.240 C 155.953 367.886, 156.165 368.016, 156.889 367.568 C 158.325 366.681, 160.995 368.661, 160.604 370.323 C 160.452 370.970, 160.526 371.135, 160.768 370.689 C 161.230 369.835, 165 372.800, 165 374.017 C 165 375.371, 157.465 373.891, 152.265 371.515 C 149.385 370.200, 145.467 367.932, 143.558 366.476 C 137.879 362.145, 135.996 365.586, 140.454 372.147 C 141.804 374.133, 142.591 376.075, 142.204 376.463 C 141.817 376.850, 141.977 377.017, 142.560 376.833 C 143.799 376.444, 155.180 388.406, 154.476 389.358 C 154.214 389.711, 154.312 389.763, 154.692 389.474 C 155.073 389.185, 157.843 391.323, 160.848 394.224 C 164.864 398.102, 165.731 398.650, 164.119 396.293 C 162.912 394.530, 160.705 392.141, 159.213 390.985 C 157.721 389.829, 153.191 385.197, 149.147 380.692 C 137.936 368.204, 135.587 362.213, 144.340 368.437 C 149.319 371.977, 159.614 376, 163.694 376 C 168.007 376, 166.405 372.370, 159.844 367.278 C 149.070 358.915, 144.378 354.153, 141.095 348.250 C 139.337 345.088, 138.197 343.625, 138.563 345 M 120.976 349.261 C 119.667 351.593, 114.637 357.594, 109.798 362.598 C 101.610 371.065, 99.731 374.097, 101.856 375.411 C 102.326 375.702, 102.511 374.893, 102.266 373.613 C 101.910 371.747, 103.134 370.127, 108.449 365.432 C 114.639 359.964, 124.956 346.623, 123.850 345.517 C 123.578 345.245, 122.285 346.930, 120.976 349.261 M 567.647 351.837 C 566.456 353.154, 566.169 354.594, 566.635 356.923 C 567.450 361.002, 570.853 362.844, 574.500 361.182 C 576.532 360.256, 577 359.327, 577 356.221 C 577 354.120, 576.460 351.860, 575.800 351.200 C 574.004 349.404, 569.533 349.753, 567.647 351.837 M 121.612 365.820 C 121.274 366.366, 118.896 368.205, 116.327 369.907 C 113.759 371.608, 112.150 373, 112.752 373 C 113.354 373, 115.906 371.428, 118.423 369.507 C 120.941 367.585, 123 366.478, 123 367.046 C 123 369.879, 118.026 377.176, 112.190 382.905 C 108.602 386.428, 104.310 390.928, 102.652 392.905 C 100.994 394.882, 103.993 392.236, 109.315 387.024 C 119.517 377.033, 125.480 368.080, 123.350 365.950 C 122.626 365.226, 122.007 365.179, 121.612 365.820 M 203.707 387.269 C 185.939 396.915, 164.691 414.846, 158.493 425.422 C 154.254 432.655, 150.593 442.313, 145.111 460.722 C 138.399 483.264, 136.536 490.915, 133.598 508.007 C 128.629 536.915, 126.872 557.364, 126.679 588.500 L 126.500 617.500 130 617.377 C 131.925 617.309, 139.876 617.196, 147.669 617.127 L 161.839 617 168.536 606.250 C 177.063 592.563, 180.376 589, 184.574 589 C 188.165 589, 190.253 590.934, 190.245 594.253 C 190.240 596.283, 185.415 604.409, 171.811 625.300 C 169.233 629.260, 167.095 632.744, 167.061 633.042 C 167.028 633.339, 186.462 633.464, 210.250 633.319 C 234.038 633.173, 309.844 633.042, 378.710 633.027 L 503.920 633 498.024 623.750 C 494.781 618.663, 488.200 608.012, 483.399 600.082 C 478.599 592.152, 473.508 584.409, 472.086 582.876 L 469.500 580.088 438.748 579.721 L 407.997 579.353 413.427 584.193 C 419.652 589.741, 423 594.644, 423 598.213 C 423 601.587, 416.188 611.869, 411.679 615.301 C 402.600 622.212, 395.626 622.715, 383.662 617.319 C 375.647 613.705, 375.203 613.626, 359 612.946 C 349.925 612.566, 340.312 611.681, 337.639 610.981 C 332.564 609.651, 325.056 609.825, 292 612.043 C 282.925 612.651, 265.600 613.003, 253.500 612.825 C 228.516 612.456, 226.636 611.974, 217.234 603.520 C 208.454 595.627, 197.311 572.007, 191.062 548.047 L 188.318 537.524 183.954 536.779 C 181.554 536.370, 178.825 535.239, 177.890 534.267 C 176.033 532.338, 169.307 515.684, 163.554 498.773 C 160.661 490.268, 160.128 487.630, 160.981 486.035 C 162.164 483.824, 166.109 482.444, 168.559 483.384 C 170.522 484.138, 175.509 494.931, 181.086 510.500 C 183.450 517.100, 185.492 522.656, 185.623 522.847 C 186.396 523.974, 232.583 509.806, 236.777 507.156 C 237.778 506.523, 237.310 503.553, 234.613 493.424 C 226.765 463.951, 217.276 446.008, 205.060 437.542 C 198.535 433.020, 198.428 427.594, 204.869 427.777 C 213.963 428.036, 228.550 442.894, 235.991 459.480 C 241.858 472.556, 249.463 499.928, 250.167 510.500 C 250.452 514.782, 250.201 515.631, 248.418 516.415 C 246.371 517.314, 246.416 517.569, 251.164 531.915 C 257.275 550.379, 257.084 549.913, 257.772 548 C 258.069 547.175, 262.338 537.050, 267.258 525.500 C 272.178 513.950, 277.729 499.954, 279.593 494.398 C 283.613 482.419, 287 463.703, 287 453.466 C 287 441.141, 290.387 437.161, 294.204 445 C 297.140 451.030, 297.649 458.498, 296.283 475.500 C 294.448 498.347, 293.361 496.557, 306.500 492.332 C 312.550 490.387, 317.876 488.443, 318.336 488.012 C 319.499 486.921, 315.527 467.994, 311.399 454.957 C 304.726 433.883, 297.323 420.886, 285.642 409.735 C 279.370 403.746, 278.472 403.194, 277.832 404.926 C 276.512 408.494, 272.260 410.316, 264.157 410.785 C 252.882 411.437, 242.586 409.572, 236.150 405.710 C 229.829 401.917, 214.380 387.773, 213.488 384.961 C 213.145 383.883, 212.558 383.008, 212.183 383.019 C 211.807 383.029, 207.993 384.941, 203.707 387.269 M 624.690 388.565 C 622.607 389.980, 619.567 391.604, 617.934 392.173 C 615.580 392.993, 614.278 394.695, 611.653 400.374 C 609.832 404.316, 606.957 409.118, 605.264 411.047 C 602.451 414.250, 602.123 415.372, 601.466 424.027 C 600.687 434.288, 599.951 436.464, 596.285 439.347 C 592.554 442.282, 584.273 454.654, 582.034 460.637 C 579.499 467.415, 578.331 476.468, 579.870 477.419 C 582.333 478.942, 592.803 469.664, 603.476 456.500 C 613.482 444.160, 627.805 431.324, 635.462 427.835 C 637.272 427.011, 637.873 426.160, 637.414 425.072 C 634.188 417.430, 631.813 404.968, 630.745 390.077 C 630.430 385.680, 629.337 385.407, 624.690 388.565 M 116.098 392 C 112.671 394.750, 109.372 397, 108.767 397 C 108.162 397, 107.928 397.261, 108.248 397.581 C 109.109 398.443, 112.302 396.499, 117.697 391.828 C 121.360 388.658, 122.574 388.050, 122.810 389.268 C 123.603 393.346, 115.599 403.338, 107.250 408.694 C 104.049 410.747, 102.045 412.732, 102.116 413.781 C 102.223 415.371, 102.265 415.373, 102.678 413.809 C 102.923 412.878, 105.061 410.982, 107.429 409.595 C 112.248 406.771, 121.706 396.902, 123.095 393.251 C 124.230 390.266, 124.266 387, 123.164 387 C 122.704 387, 119.524 389.250, 116.098 392 M 141 391.966 C 142.887 393.372, 155.391 399.818, 158.599 401.038 C 160.116 401.615, 161 401.592, 161 400.975 C 161 400.439, 160.414 400, 159.697 400 C 158.981 400, 154.593 398.103, 149.947 395.784 C 140.435 391.037, 138.843 390.358, 141 391.966 M 139.247 415.019 C 145.426 418.899, 146.843 418.884, 141 415 C 138.525 413.355, 136.050 412.015, 135.500 412.023 C 134.950 412.031, 136.636 413.379, 139.247 415.019 M 124.336 430 C 124.336 434.125, 124.513 435.813, 124.728 433.750 C 124.944 431.688, 124.944 428.313, 124.728 426.250 C 124.513 424.188, 124.336 425.875, 124.336 430 M 95.264 450.718 C 96.784 450.947, 99.034 450.941, 100.264 450.704 C 101.494 450.467, 100.250 450.279, 97.500 450.286 C 94.750 450.294, 93.744 450.488, 95.264 450.718 M 105.728 450.722 C 107.503 450.943, 110.653 450.946, 112.728 450.730 C 114.802 450.513, 113.350 450.333, 109.500 450.328 C 105.650 450.324, 103.952 450.501, 105.728 450.722 M 607.055 468.485 C 596.858 481.137, 592.312 485.554, 587.355 487.625 C 580.693 490.408, 573.501 488.674, 570.804 483.633 C 570.190 482.487, 569.421 479.078, 569.094 476.057 L 568.500 470.564 564.332 481.032 C 557.358 498.551, 556.532 502.628, 556.543 519.500 C 556.555 536.293, 558.038 543.440, 564.623 558.416 C 568.535 567.314, 574.819 592.190, 578.538 613.500 C 582.501 636.204, 580.879 635.493, 593.158 619.908 C 605.464 604.287, 611.944 594.494, 614.601 587.500 C 616.305 583.013, 616.494 579.681, 616.441 555 C 616.392 532.454, 615.963 524.173, 614.058 509.028 C 611.408 487.955, 611.623 474.857, 614.800 463.750 C 615.862 460.038, 616.637 457, 616.522 457 C 616.406 457, 612.146 462.168, 607.055 468.485 M 398.350 476.321 C 395.683 479.247, 389.530 487.368, 384.677 494.368 C 379.556 501.753, 374.189 508.300, 371.885 509.968 C 367.613 513.063, 329.771 531.979, 324.010 533.900 C 321.109 534.867, 320.333 534.808, 319.414 533.552 C 318.306 532.036, 314 509.397, 314 505.084 C 314 503.611, 313.534 502.965, 312.702 503.284 C 311.989 503.558, 307.826 504.760, 303.452 505.955 C 288.856 509.945, 289.151 509.794, 288.034 513.818 C 286.413 519.655, 286.818 525.801, 289.478 535.729 C 292.278 546.181, 296.938 556.111, 300.662 559.562 C 304.201 562.842, 313.324 564.642, 317.978 562.978 C 321.538 561.705, 351.951 544.408, 366.272 535.511 C 373.873 530.789, 374.424 530.620, 391.272 527.861 C 415.433 523.903, 430.450 518.958, 438.327 512.366 C 442.003 509.289, 440.731 509.383, 431.720 512.852 C 421.053 516.960, 419.403 517.260, 417.572 515.429 C 413.943 511.800, 415.386 510.407, 428.390 504.995 C 433.751 502.764, 439.868 499.846, 441.984 498.510 C 446.365 495.744, 448.502 493.195, 445.414 494.418 C 444.361 494.835, 440.350 496.314, 436.500 497.704 C 432.650 499.094, 426.698 501.787, 423.274 503.688 C 416.007 507.723, 412.647 507.771, 412.193 503.845 C 411.774 500.224, 415.656 497.496, 429.734 491.516 C 435.912 488.891, 441.461 486.149, 442.064 485.423 C 443.914 483.194, 425.597 488.611, 412.924 494.040 C 400.865 499.207, 398.205 499.805, 396.200 497.800 C 394.090 495.690, 394.892 491.506, 399.396 481.128 C 401.814 475.558, 403.660 471, 403.497 471 C 403.334 471, 401.018 473.394, 398.350 476.321 M 226 523.916 C 221.875 525.439, 213.970 527.945, 208.434 529.484 L 198.367 532.282 199.761 536.891 C 208.330 565.237, 214.784 580.879, 222.041 590.897 C 225.577 595.779, 232.377 599.880, 239.853 601.640 C 246.456 603.194, 265.089 603.379, 283.500 602.073 C 330.932 598.709, 335.629 598.569, 341.940 600.324 C 346.142 601.492, 351.860 602, 360.803 602 C 375.310 602, 381.030 603.260, 388.259 608.048 C 391.335 610.085, 393.877 611.031, 395.713 610.820 C 398.471 610.503, 398.449 610.461, 393.574 606.725 C 389.178 603.357, 382.095 600.577, 372.779 598.564 C 371.282 598.241, 369.538 597.005, 368.902 595.817 C 366.039 590.467, 376.397 589.559, 385 594.407 C 393.215 599.037, 399.094 602.085, 401.765 603.101 L 404.404 604.104 402.452 601.936 C 399.877 599.076, 391.030 594.030, 388.500 593.978 C 383.894 593.883, 381.464 589.520, 384.578 586.935 C 385.902 585.836, 387.711 586.150, 395.828 588.888 C 401.148 590.682, 406.175 592.368, 407 592.636 C 407.825 592.903, 407.150 591.969, 405.500 590.560 C 397.995 584.152, 375.655 577.798, 354.532 576.064 C 347.914 575.521, 322.475 574.841, 298 574.554 C 258.079 574.086, 253.375 573.861, 252.285 572.373 C 250.845 570.407, 244.371 550.983, 239.995 535.500 C 238.284 529.450, 236.656 523.712, 236.375 522.750 C 235.722 520.507, 235.019 520.586, 226 523.916 M 273.008 543.212 C 269.349 551.084, 265.556 562.008, 266.287 562.572 C 266.667 562.865, 288 563.793, 288 563.517 C 288 563.369, 286.908 560.779, 285.573 557.761 C 284.238 554.742, 282.139 548.499, 280.909 543.886 C 279.678 539.274, 278.369 535.146, 277.998 534.712 C 277.628 534.279, 275.382 538.104, 273.008 543.212 M 164.330 649.136 C 164.664 651.960, 165.093 654.427, 165.283 654.617 C 165.528 654.861, 476.346 655.228, 506.250 655.019 C 508.914 655.001, 509 654.829, 509 649.500 L 509 644 336.361 644 L 163.721 644 164.330 649.136" stroke="none" fill="#f4f1e4" fill-rule="evenodd"/></svg>