<svg xmlns="http://www.w3.org/2000/svg" width="750" height="750" viewBox="0 0 750 750" version="1.1"><path d="M 184.750 48.724 C 182.398 51.323, 182.495 55.659, 184.934 56.965 C 186.170 57.626, 200.607 58, 224.934 58 L 263 58 263 71.531 C 263 83.546, 262.804 85.123, 261.250 85.604 C 260.288 85.901, 258.878 86.465, 258.117 86.857 C 256.885 87.492, 245 123.584, 245 126.690 C 245 127.376, 242.617 129.698, 239.704 131.849 C 231.523 137.893, 221.062 149.734, 217.813 156.629 C 216.224 160, 214.042 163.557, 212.962 164.534 C 211.673 165.701, 211 167.604, 211 170.084 C 211 176.552, 212.170 177, 229.071 177 L 244 177 244 179.662 C 244 184.305, 248.625 190.744, 254.296 193.996 C 258.884 196.628, 260.453 196.982, 267.554 196.991 C 274.245 196.998, 276.495 196.558, 280.851 194.387 C 286.838 191.404, 291.009 186.743, 292.589 181.272 L 293.678 177.500 307.589 177.233 C 319.226 177.009, 321.704 176.692, 322.750 175.291 C 324.814 172.528, 324.241 167.440, 321.500 164.182 C 320.125 162.548, 319 160.771, 319 160.234 C 319 158.696, 309.544 144.607, 305.527 140.161 C 303.529 137.950, 299.674 134.716, 296.961 132.975 C 292.375 130.032, 291.881 129.306, 289.931 122.655 C 284.237 103.229, 279.566 89.327, 278.203 87.750 C 277.371 86.787, 275.860 86, 274.845 86 C 273.140 86, 273 84.941, 273 72 L 273 58 408.300 58 C 512.200 58, 543.878 57.722, 544.800 56.800 C 546.534 55.066, 546.274 50.472, 544.352 48.877 C 542.975 47.734, 513.399 47.450, 364.602 47.150 C 189.580 46.797, 186.469 46.824, 184.750 48.724 M 499.500 83.457 C 480.949 86.839, 467.851 92.144, 453.420 102.121 C 433.312 116.021, 419.284 139.229, 414.537 166.446 C 412.745 176.723, 412.387 209.986, 414.035 213.066 C 415.231 215.300, 421.805 215.795, 423.800 213.800 C 424.639 212.961, 425.002 207.471, 425.006 195.550 C 425.016 167.544, 428.691 151.128, 438.424 135.620 C 447.230 121.587, 457.095 112.521, 472.257 104.526 C 519.621 79.550, 583.520 97.288, 605.030 141.383 C 614.320 160.428, 614.316 160.400, 614.760 216.500 L 615.147 265.500 543.895 265.500 L 472.644 265.500 471.909 268.247 C 471.377 270.237, 471.677 271.615, 472.999 273.247 L 474.823 275.500 549.714 275.840 C 615.761 276.140, 624.754 276.001, 625.866 274.661 C 626.856 273.469, 627.049 261.680, 626.767 219.821 L 626.407 166.500 623.782 157 C 617.253 133.368, 606.625 117.062, 588.825 103.365 C 577.490 94.643, 557.650 86.369, 541.119 83.470 C 530.976 81.691, 509.222 81.684, 499.500 83.457 M 261.221 111.790 C 258.900 118.825, 257 124.900, 257 125.290 C 257 125.681, 262.086 126, 268.303 126 L 279.605 126 275.053 112.501 C 270.813 99.930, 270.326 99.002, 267.971 99.001 C 265.618 99, 265.150 99.887, 261.221 111.790 M 518 111.952 C 518 116.807, 517.710 117.362, 511.928 123.578 C 501.443 134.848, 499.466 142.624, 505.250 149.836 C 507.038 152.065, 508.950 153.767, 509.500 153.617 C 510.050 153.468, 510.615 151.580, 510.757 149.423 C 511.335 140.578, 512.068 138.876, 518.088 132.405 C 524.510 125.502, 526 122.711, 526 117.583 C 526 113.838, 522.276 107.677, 519.715 107.184 C 518.276 106.907, 518 107.674, 518 111.952 M 537.590 123.133 C 537.349 123.885, 536.638 126.171, 536.011 128.213 C 535.208 130.824, 533.404 133.001, 529.929 135.552 C 523.869 140, 522 142.559, 522 146.407 C 522 149.528, 525.626 158, 526.961 158 C 527.392 158, 528.049 156.096, 528.421 153.770 C 528.981 150.264, 530.144 148.571, 535.207 143.886 C 541.042 138.486, 541.337 137.983, 541.777 132.675 C 542.157 128.095, 541.868 126.647, 540.133 124.441 C 538.660 122.570, 537.896 122.176, 537.590 123.133 M 243.516 144.134 C 237.459 149.800, 227.032 162.507, 227.010 164.250 C 227.004 164.662, 245 165, 267 165 C 289 165, 306.999 164.662, 306.997 164.250 C 306.993 163.042, 300.007 151.719, 297.655 149.108 C 296.470 147.793, 292.863 144.755, 289.640 142.358 L 283.780 138 266.927 138 L 250.073 138 243.516 144.134 M 490.210 167.502 C 486.200 168.228, 481.812 169.548, 480.460 170.435 C 478.174 171.932, 478.001 172.628, 478.017 180.273 C 478.050 195.740, 481.360 205.576, 490.083 216.124 L 493.906 220.747 491.024 220.502 C 489.438 220.367, 481.487 220.086, 473.355 219.878 L 458.568 219.500 457.352 221.931 C 454.118 228.393, 464.798 236.568, 484.017 242.342 C 497.275 246.325, 506.964 247.304, 527.292 246.715 C 541.105 246.314, 547.339 245.697, 553.120 244.158 C 564.613 241.097, 575.542 236.155, 580.532 231.763 C 585.223 227.634, 586.072 224.848, 583.651 221.537 C 582.413 219.844, 581.125 219.738, 568.075 220.254 C 560.251 220.564, 554.009 220.658, 554.203 220.463 C 554.398 220.268, 558.122 219.372, 562.479 218.473 C 566.836 217.573, 572.040 216, 574.045 214.977 C 583.871 209.964, 588.530 197.991, 584.452 188.232 C 581.719 181.690, 575.886 177, 570.484 177 C 566.805 177, 564 175.269, 564 173 C 564 170.335, 561.615 169.292, 551.481 167.525 C 540.295 165.574, 500.928 165.559, 490.210 167.502 M 497.745 176.017 C 493.480 176.506, 489.205 177.346, 488.245 177.883 C 486.707 178.744, 486.838 178.988, 489.357 179.946 C 500.535 184.195, 558.201 183.370, 555.499 178.998 C 553.706 176.098, 514.629 174.081, 497.745 176.017 M 255 177.923 C 255 179.908, 261.256 184.957, 264.461 185.559 C 270.650 186.720, 277.409 183.841, 280.042 178.922 C 281.032 177.072, 280.585 177, 268.035 177 C 260.736 177, 255 177.406, 255 177.923 M 564 189.693 C 564 190.761, 563.125 194.967, 562.056 199.040 C 560.987 203.113, 560.329 206.663, 560.595 206.928 C 561.921 208.255, 569.622 204.221, 571.717 201.102 C 575.884 194.899, 574.053 189.761, 567.184 188.387 C 564.479 187.846, 564 188.042, 564 189.693 M 348.862 199.491 C 333.443 202.424, 322.569 208.248, 312.847 218.781 C 306.146 226.039, 302.513 233.108, 300.911 242 L 299.740 248.500 291.771 253.914 C 287.388 256.892, 281.372 261.549, 278.401 264.264 C 273.459 268.781, 273 269.568, 273 273.528 C 273 277.280, 273.478 278.249, 276.603 280.824 C 280.890 284.358, 288.822 286.757, 299.089 287.625 L 306.576 288.258 308.323 296.028 C 309.283 300.302, 313.223 313.182, 317.077 324.650 C 320.931 336.117, 324.178 346.285, 324.292 347.243 C 324.448 348.549, 322.075 350.083, 314.850 353.350 C 301.791 359.255, 292.536 365.604, 281.223 376.420 C 270.939 386.250, 255.665 405.845, 246.470 421 C 238.487 434.158, 237.119 437.467, 237.741 442.102 C 238.225 445.711, 237.852 446.442, 232.380 452.609 C 213.815 473.535, 208.692 481.702, 206.896 493.239 C 205.686 501.013, 207.342 509.413, 211.329 515.728 C 214.184 520.250, 226.071 531.570, 228.912 532.472 C 230.292 532.910, 231.109 534.282, 231.494 536.806 C 234.139 554.157, 237.538 561.413, 247.396 570.756 C 251.310 574.465, 256.646 578.624, 259.254 579.997 L 263.996 582.495 270.748 580.140 C 276.876 578.002, 297.460 569.315, 312.357 562.579 L 318.214 559.930 317.635 567.715 C 317.316 571.997, 316.782 580.225, 316.449 586 L 315.842 596.500 265.469 596 L 215.095 595.500 211.297 591.904 C 206.569 587.426, 192.054 576.613, 191.506 577.161 C 191.284 577.383, 190.019 581.742, 188.697 586.846 L 186.293 596.128 160.177 596.034 C 135.198 595.944, 133.972 596.028, 132.030 597.970 C 129.404 600.596, 129.469 602.152, 132.314 604.826 C 134.567 606.941, 135.319 607, 160.289 607 L 185.949 607 187.571 610.137 C 189.784 614.418, 193.282 617.487, 201.250 622.144 C 205.021 624.348, 208 626.778, 208 627.651 C 208 628.748, 207.478 628.999, 206.250 628.492 C 196.907 624.640, 175.013 619.654, 173.608 621.058 C 173.046 621.621, 176.250 636.220, 177.773 640.031 C 179.463 644.263, 186.047 649.815, 194.657 654.270 L 202.831 658.500 188.415 658.156 L 174 657.812 174 660.210 C 174 663.404, 180.132 681.479, 183.485 688.168 C 184.955 691.101, 187.270 694.962, 188.630 696.750 L 191.102 700 212.073 700 L 233.044 700 236.983 693.905 C 241.381 687.101, 248.561 669.597, 249.587 663.179 L 250.256 659 235.628 659 L 221 659 221 650.221 L 221 641.443 227.953 639.652 C 235.610 637.679, 245.019 632.143, 249.240 627.126 C 251.828 624.051, 254.193 617.820, 255.581 610.421 L 256.223 607 285.969 607 L 315.715 607 316.346 612.750 C 316.947 618.238, 321.165 637.844, 322.422 641 C 322.928 642.270, 321.542 642.505, 313.396 642.532 C 304.135 642.563, 303.682 642.668, 301.386 645.338 C 299.419 647.624, 299.004 649.200, 299.022 654.306 C 299.090 673.539, 314.309 681.680, 352.143 682.723 C 397.894 683.983, 419.552 675.404, 420.818 655.520 C 421.188 649.713, 421.002 649.034, 418.191 645.886 C 415.207 642.546, 415.037 642.495, 405.583 642.153 C 400.312 641.963, 396 641.647, 396 641.451 C 396 641.254, 396.501 639.994, 397.114 638.649 C 399.159 634.161, 410.810 633.523, 416.918 637.565 C 420.118 639.682, 421.466 640.007, 424.647 639.429 C 433.837 637.760, 440.657 632.353, 447.990 620.920 C 450.887 616.404, 454.897 611.638, 457.209 609.964 L 461.300 607 532.900 606.985 C 572.280 606.976, 604.995 606.639, 605.600 606.235 C 606.205 605.831, 607.250 604.457, 607.921 603.183 C 608.923 601.281, 608.856 600.430, 607.548 598.433 L 605.954 596 548.502 596 L 491.050 596 491.682 592.750 C 492.030 590.962, 492.806 589.192, 493.407 588.816 C 512.258 577.016, 527.597 563.306, 531.508 554.763 C 535.432 546.192, 536.611 536.736, 535.184 525.271 C 534.516 519.897, 533.685 511.802, 533.339 507.282 L 532.709 499.065 536.354 495.030 C 538.359 492.810, 540 490.755, 540 490.462 C 540 490.169, 538.195 482.633, 535.988 473.715 C 530.239 450.476, 524.627 435.312, 513.462 412.848 C 503.451 392.705, 496.307 383.420, 484.288 374.931 C 477.399 370.066, 457.547 359.218, 441.289 351.437 C 429.208 345.654, 425.963 343.677, 425.523 341.828 C 424.514 337.593, 422.012 319.554, 422.009 316.500 C 422.008 314.850, 423.804 306.075, 426 297 C 428.196 287.925, 429.995 279.488, 429.997 278.250 C 429.999 277.012, 430.367 276, 430.815 276 C 432.073 276, 434.697 282.100, 438.502 293.871 C 442.832 307.265, 446.425 311.844, 456.326 316.589 C 460.147 318.420, 465.124 320.181, 467.387 320.503 C 472.693 321.256, 480.369 319.039, 480.835 316.618 C 481.377 313.804, 477.154 310.151, 471.182 308.268 C 466.673 306.847, 465.070 305.673, 461.970 301.524 C 457.080 294.978, 452.739 286.183, 450.185 277.651 C 447.447 268.502, 443.870 263.559, 437.965 260.764 C 433.388 258.597, 433.155 258.285, 432.546 253.500 C 429.601 230.394, 419.614 216.149, 399.287 206.064 C 385.374 199.161, 364.739 196.471, 348.862 199.491 M 170.015 208.476 C 150.925 212.079, 131.683 226.673, 123.160 244.012 C 115.129 260.351, 114.815 262.857, 114.967 309.300 C 115.041 331.740, 115.358 350.769, 115.672 351.587 C 117.330 355.909, 118.716 356, 183 356 C 249.140 356, 249.210 355.994, 250.547 350.670 C 250.863 349.408, 250.950 329.729, 250.739 306.938 C 250.310 260.524, 250.318 260.591, 242.756 245 C 237.165 233.472, 224.116 220.190, 213 214.713 C 199.510 208.066, 184.061 205.824, 170.015 208.476 M 352.500 209.675 C 331.303 212.648, 315.813 225.768, 313.078 243.067 L 312.315 247.895 317.408 248.388 C 320.208 248.658, 330.375 249.327, 340 249.874 C 358.802 250.942, 366.988 252.694, 370.243 256.348 C 372.110 258.445, 372.625 258.499, 383.343 257.727 C 389.480 257.284, 400.238 257.053, 407.251 257.211 L 420.003 257.500 419.987 255 C 419.956 250.307, 416.951 239.682, 414.253 234.723 C 409.369 225.749, 394.848 214.511, 384.255 211.505 C 382.255 210.938, 382.451 211.507, 386.052 216.725 C 389.137 221.196, 390.299 224.039, 390.964 228.747 C 392.434 239.142, 390.466 241.719, 385.535 235.859 C 382.706 232.497, 373 212.984, 373 210.659 C 373 209.571, 371.071 209.262, 364.250 209.258 C 359.438 209.256, 354.150 209.443, 352.500 209.675 M 187 245.629 L 187 273 189.750 273.192 C 191.262 273.298, 202.962 273.411, 215.749 273.442 L 238.999 273.500 238.999 270.302 C 239 264.356, 234.096 251.311, 228.989 243.676 C 220.064 230.331, 207.522 222.068, 191.750 219.140 L 187 218.258 187 245.629 M 166.500 220.861 C 153.463 225.346, 142.951 233.418, 135.818 244.422 C 131.985 250.334, 127.833 261.756, 126.628 269.704 L 125.991 273.907 147.746 273.561 C 159.711 273.371, 171.188 273.167, 173.250 273.108 L 177 273 177 246 L 177 219 174.250 219.070 C 172.738 219.109, 169.250 219.914, 166.500 220.861 M 556.500 230.203 C 551.550 230.716, 530.900 230.948, 510.610 230.720 C 474.464 230.313, 473.789 230.341, 477.110 232.127 C 478.975 233.129, 484.100 235.157, 488.500 236.632 C 495.657 239.032, 498.343 239.360, 514 239.746 C 529.042 240.116, 532.946 239.880, 541.794 238.060 C 552.566 235.846, 573.121 228.543, 566.917 229.135 C 566.138 229.209, 561.450 229.690, 556.500 230.203 M 305 258.749 C 303.625 259.653, 299.538 262.339, 295.917 264.718 C 292.296 267.096, 288.080 270.351, 286.548 271.950 L 283.761 274.859 287.631 275.866 C 295.909 278.021, 303.982 279.036, 317.468 279.619 C 333.441 280.309, 340.851 279.083, 351.548 273.977 C 358.710 270.559, 365.131 264.212, 362.767 262.889 C 359.471 261.045, 351.379 259.891, 332 258.501 C 307.216 256.723, 308.093 256.715, 305 258.749 M 367 277.093 C 358.310 284.572, 340.813 289.981, 325.271 289.993 L 316.043 290 317.173 292.481 C 317.795 293.845, 319.248 295.225, 320.402 295.548 C 328.200 297.727, 328 297.423, 328 307.072 C 328 318.637, 329.505 325.708, 332.144 326.546 C 333.243 326.895, 336.698 326.888, 339.821 326.531 C 343.923 326.063, 346.016 326.264, 347.360 327.258 C 349.152 328.584, 349.133 328.734, 346.827 331.415 C 345.051 333.479, 343.237 334.332, 339.794 334.720 C 335.328 335.223, 335.194 335.332, 336.237 337.621 C 337.129 339.579, 338.068 340, 341.536 340 C 343.854 340, 348.234 338.902, 351.269 337.560 C 354.303 336.218, 357.059 335.393, 357.393 335.727 C 358.817 337.151, 357.833 341.808, 355.681 343.830 C 354.405 345.029, 350.580 346.948, 347.181 348.096 C 343.767 349.249, 341 350.777, 341 351.508 C 341 352.237, 340.438 353.022, 339.750 353.253 C 336.686 354.283, 346.758 356.214, 352.891 355.774 C 364.745 354.923, 373.444 348.489, 380.856 335.089 C 386.367 325.127, 387.769 323.963, 391.399 326.342 C 394.890 328.629, 394.714 331.313, 390.531 339.616 C 386.107 348.394, 379.097 357.268, 373.431 361.262 C 370.994 362.980, 369.001 364.861, 369.001 365.443 C 369.002 366.024, 369.674 370.317, 370.495 374.981 C 371.316 379.646, 371.735 384.259, 371.427 385.231 C 370.933 386.785, 371.571 386.999, 376.683 386.988 C 391.823 386.957, 406.408 379.192, 413.038 367.631 C 416.766 361.132, 416.819 357.165, 413.461 336.356 L 410.922 320.625 406.961 317.235 C 401.670 312.706, 401.643 309.760, 406.873 307.667 C 410.456 306.234, 410.870 305.645, 412.404 299.809 C 415.063 289.684, 412.753 285.073, 405.686 286.399 C 400.518 287.369, 397.120 291.362, 394.112 300 C 392.060 305.893, 391.040 307.566, 389.354 307.806 C 387.602 308.056, 386.884 307.230, 385.441 303.306 C 379.995 288.493, 372.914 273.941, 371.201 274.041 C 370.815 274.063, 368.925 275.437, 367 277.093 M 126.001 313.250 L 126 345 151.514 345 L 177.028 345 176.764 313.250 L 176.500 281.500 151.251 281.500 L 126.001 281.500 126.001 313.250 M 188.750 281.733 C 187.129 282.116, 187 284.467, 187 313.573 L 187 345 213.514 345 L 240.028 345 239.764 313.250 L 239.500 281.500 215 281.410 C 201.525 281.360, 189.713 281.506, 188.750 281.733 M 344.223 295.557 C 339.628 298.775, 342.515 306, 348.394 306 C 352.971 306, 355 304.317, 355 300.522 C 355 296.806, 352.203 294, 348.500 294 C 347.370 294, 345.445 294.701, 344.223 295.557 M 517 345.265 C 517 345.485, 518.913 347.185, 521.250 349.043 C 523.587 350.900, 524.865 351.630, 524.089 350.663 C 522.627 348.843, 517 344.558, 517 345.265 M 606.608 348.817 C 607.649 350.641, 609.371 352.891, 610.435 353.817 C 611.560 354.796, 611.165 353.827, 609.490 351.500 C 605.483 345.934, 604.375 344.902, 606.608 348.817 M 428.511 362.937 C 428.145 365.103, 426.303 369.490, 424.417 372.687 C 414.619 389.300, 392.516 400, 370.619 398.730 C 349.886 397.528, 338.720 390.090, 329.291 371.201 C 326.048 364.704, 325.364 363.934, 323.074 364.201 C 320.760 364.470, 320.428 365.057, 319.786 370 C 319.393 373.025, 318.766 388.150, 318.392 403.610 L 317.712 431.720 371.148 431.919 L 424.585 432.119 425.768 420.309 C 427.943 398.616, 432.437 379.407, 438.106 367.576 C 439.140 365.418, 439.877 363.564, 439.743 363.456 C 439.370 363.154, 429.785 359, 429.461 359 C 429.304 359, 428.876 360.772, 428.511 362.937 M 578.974 366.250 C 577.653 368.038, 573.647 372.875, 570.073 377 C 566.499 381.125, 564.423 383.825, 565.460 383 C 567.473 381.399, 582 364.238, 582 363.462 C 582 362.466, 581.281 363.128, 578.974 366.250 M 600.193 369.003 C 601.903 371.755, 603.944 374.539, 604.728 375.189 C 605.512 375.840, 604.304 373.588, 602.044 370.186 C 597.124 362.778, 595.796 361.930, 600.193 369.003 M 342.601 370.901 C 346.515 377.472, 350.100 380.990, 355.895 383.947 L 359.524 385.798 359.512 376.552 L 359.500 367.307 355.281 367.780 C 351.515 368.202, 345.261 367.188, 340.601 365.401 C 339.450 364.959, 340.059 366.634, 342.601 370.901 M 452.130 372.181 C 448.044 383.032, 445.909 389.836, 444.618 396.127 C 440.303 417.135, 439.834 476.569, 443.841 494.500 C 446.862 508.018, 450.707 519.481, 455.580 529.500 C 462.473 543.673, 461.703 543.288, 469.851 536.622 L 476.774 530.958 474.913 522.729 C 473.889 518.203, 473.040 514.191, 473.026 513.813 C 473.012 513.435, 471.434 513.380, 469.519 513.691 C 464.926 514.436, 461.348 512.050, 458.984 506.666 C 456.478 500.956, 452.010 479.265, 451.301 469.361 C 450.752 461.694, 450.847 461.152, 452.923 460.041 C 454.555 459.168, 455.479 459.152, 456.477 459.981 C 457.780 461.062, 465.017 481.913, 468.546 494.750 L 470.264 501 474.457 501 C 484.977 501, 515.719 493.470, 524.387 488.770 L 526.730 487.500 523.824 476 C 519.028 457.016, 512.329 438.385, 504.491 422.231 C 490.397 393.185, 485.265 387.539, 460.752 374.107 L 453.003 369.862 452.130 372.181 M 298.500 376.915 C 285.948 386.837, 274.660 400.604, 260.560 423.186 C 250.209 439.765, 250.081 438.098, 262.549 449.043 C 270.557 456.073, 280.391 461.960, 287.221 463.813 L 290.942 464.823 296.221 457.702 L 301.500 450.581 301.599 422.540 C 301.675 401.211, 302.112 391.906, 303.427 383.661 C 304.378 377.700, 305.008 372.676, 304.828 372.497 C 304.647 372.319, 301.800 374.307, 298.500 376.915 M 158.947 383.105 C 157.795 385.362, 157.277 386.947, 157.796 386.626 C 158.315 386.305, 159.306 384.676, 159.998 383.005 C 161.077 380.400, 161.487 380.148, 162.878 381.234 C 164.320 382.360, 164.348 382.306, 163.128 380.750 C 162.373 379.788, 161.594 379, 161.398 379 C 161.201 379, 160.098 380.847, 158.947 383.105 M 611.500 383 C 613.648 385.200, 615.592 387, 615.819 387 C 616.661 387, 609.464 379.166, 608.547 379.085 C 608.023 379.038, 609.352 380.800, 611.500 383 M 556 391.205 C 552.425 394.566, 551.300 395.937, 553.500 394.251 C 557.318 391.325, 563.857 384.948, 562.937 385.047 C 562.697 385.073, 559.575 387.844, 556 391.205 M 153.879 391.750 C 152.622 393.813, 149.098 398.235, 146.047 401.579 C 140.709 407.429, 140.744 407.408, 147 401.023 C 150.575 397.374, 154.313 392.951, 155.307 391.194 C 157.831 386.730, 156.659 387.186, 153.879 391.750 M 617.083 388.307 C 617.313 388.476, 619.525 390.094, 622 391.902 L 626.500 395.189 622.500 391.610 C 620.300 389.641, 618.087 388.023, 617.583 388.015 C 617.079 388.007, 616.854 388.138, 617.083 388.307 M 169.148 393.900 C 171.643 398.037, 184 411.643, 184 410.252 C 184 409.801, 181.491 406.972, 178.423 403.966 C 175.356 400.960, 171.714 396.587, 170.328 394.250 C 168.943 391.913, 167.582 390, 167.303 390 C 167.025 390, 167.855 391.755, 169.148 393.900 M 606 392.459 C 606 392.734, 607.800 393.878, 610 395 C 612.200 396.122, 614 396.816, 614 396.541 C 614 396.266, 612.200 395.122, 610 394 C 607.800 392.878, 606 392.184, 606 392.459 M 598.040 394.364 C 597.969 395.888, 602.333 403, 603.339 403 C 603.873 403, 603.622 402.212, 602.780 401.250 C 601.939 400.288, 600.537 398.150, 599.665 396.500 C 598.793 394.850, 598.062 393.889, 598.040 394.364 M 604 404.275 C 604 404.426, 607.487 407.914, 611.750 412.025 L 619.500 419.500 612.025 411.750 C 605.082 404.552, 604 403.544, 604 404.275 M 148.203 411.429 C 143.558 414.713, 142.905 415.652, 146.827 413.406 C 148.657 412.357, 150.624 410.938, 151.199 410.250 C 152.677 408.483, 151.984 408.756, 148.203 411.429 M 172.859 410.330 C 174.753 412.612, 184.021 417.206, 185.548 416.620 C 187.160 416.001, 187.505 413.430, 186.093 412.558 C 185.595 412.249, 185.422 412.898, 185.710 413.999 C 186.479 416.938, 184.263 416.530, 177.567 412.498 C 174.369 410.573, 172.250 409.597, 172.859 410.330 M 561 417.245 C 556.325 421.729, 554.300 423.994, 556.500 422.279 C 560.432 419.214, 570.868 408.956, 569.962 409.046 C 569.708 409.071, 565.675 412.761, 561 417.245 M 213 413.207 C 211.075 414.864, 210.400 415.728, 211.500 415.127 C 214.522 413.475, 217.408 411.073, 216.927 410.608 C 216.692 410.381, 214.925 411.551, 213 413.207 M 151.679 418.284 C 149.227 422.470, 144.595 427.102, 134.161 435.805 C 131.323 438.173, 129 440.491, 129 440.955 C 129 441.420, 130.505 440.382, 132.344 438.650 C 134.184 436.918, 139.021 432.528, 143.094 428.895 C 147.168 425.263, 151.541 420.425, 152.814 418.145 C 155.872 412.667, 154.901 412.786, 151.679 418.284 M 170.792 419.579 C 173.722 423.874, 178.704 428.652, 184 432.246 C 186.475 433.926, 189.611 436.245, 190.970 437.400 C 192.923 439.061, 193.141 439.112, 192.010 437.645 C 191.224 436.625, 188.028 434.056, 184.909 431.938 C 181.789 429.820, 176.864 425.479, 173.964 422.293 C 171.064 419.107, 169.637 417.885, 170.792 419.579 M 623.217 422.513 C 625.261 424.651, 627.095 426.197, 627.294 425.950 C 627.492 425.702, 625.819 423.953, 623.577 422.063 L 619.500 418.626 623.217 422.513 M 607.673 424.080 C 608.914 425.582, 615 429.411, 615 428.689 C 615 428.456, 613.087 427.004, 610.750 425.463 C 608.413 423.921, 607.028 423.299, 607.673 424.080 M 166 433.373 C 166 434.453, 169.972 442, 170.541 442 C 170.816 442, 170.076 440.087, 168.897 437.750 C 166.579 433.153, 166 432.278, 166 433.373 M 567.453 440.250 L 563.500 444.500 567.750 440.547 C 571.702 436.871, 572.460 436, 571.703 436 C 571.540 436, 569.627 437.913, 567.453 440.250 M 612.958 442.250 C 615.410 444.863, 617.548 447, 617.708 447 C 618.459 447, 617.665 446.102, 613.250 441.958 L 608.500 437.500 612.958 442.250 M 148.405 445.133 C 147.357 446.306, 142.113 450.828, 136.750 455.182 C 131.387 459.536, 127.036 463.639, 127.079 464.299 C 127.138 465.202, 127.277 465.208, 127.638 464.324 C 127.902 463.677, 132.029 460.011, 136.809 456.177 C 144.975 449.628, 152.034 443, 150.842 443 C 150.549 443, 149.453 443.960, 148.405 445.133 M 180 453.500 C 183.543 457.075, 186.667 460, 186.942 460 C 187.217 460, 184.543 457.075, 181 453.500 C 177.457 449.925, 174.333 447, 174.058 447 C 173.783 447, 176.457 449.925, 180 453.500 M 240.587 461.693 C 217.577 486.269, 214.061 500.993, 227.621 516.002 C 229.565 518.154, 231.968 520.172, 232.960 520.487 C 233.953 520.802, 237.299 520.112, 240.397 518.953 L 246.030 516.845 243.765 514.985 C 241.930 513.478, 241.710 512.781, 242.604 511.313 C 243.454 509.917, 245.216 509.432, 250.253 509.207 L 256.798 508.913 256.295 505.165 C 255.575 499.798, 257.594 498.339, 263.796 499.743 C 266.383 500.328, 270.300 500.505, 272.500 500.136 L 276.500 499.464 271.500 497.329 C 262.269 493.388, 255.834 492, 246.787 492 C 239.472 492, 237.827 491.713, 237.302 490.344 C 236.409 488.017, 241.874 483.381, 247.211 481.939 C 250.941 480.931, 252.804 481.113, 261.500 483.334 C 267 484.739, 272.460 486.177, 273.633 486.530 C 275.394 487.060, 276.485 486.169, 279.884 481.422 L 284.002 475.672 275.062 471.424 C 266.399 467.307, 253.586 459.600, 249.500 456.048 C 247.558 454.359, 247.300 454.523, 240.587 461.693 M 152.058 462.596 C 150.748 465.066, 147.864 469.204, 145.649 471.793 C 141.935 476.133, 141.891 476.248, 145.086 473.271 C 148.543 470.051, 155.654 459.321, 154.859 458.526 C 154.628 458.295, 153.368 460.127, 152.058 462.596 M 301.123 471.231 C 300.365 472.479, 296.831 477.440, 293.268 482.255 L 286.791 491.010 289.146 492.972 C 290.441 494.051, 292.850 494.953, 294.500 494.978 C 296.150 495.002, 299.188 495.301, 301.250 495.642 L 305 496.262 304.945 492.381 C 304.914 490.246, 304.352 484.104, 303.695 478.731 C 302.598 469.764, 302.387 469.148, 301.123 471.231 M 582.286 486.500 C 582.294 489.250, 582.488 490.256, 582.718 488.736 C 582.947 487.216, 582.941 484.966, 582.704 483.736 C 582.467 482.506, 582.279 483.750, 582.286 486.500 M 165.300 493 C 165.300 496.025, 165.487 497.262, 165.716 495.750 C 165.945 494.238, 165.945 491.762, 165.716 490.250 C 165.487 488.738, 165.300 489.975, 165.300 493 M 510.500 507.204 C 505 508.732, 496.974 510.746, 492.664 511.680 L 484.828 513.377 485.387 516.439 C 485.695 518.122, 486.237 523.325, 486.591 528 L 487.236 536.500 475.868 547.504 C 458.375 564.437, 425.229 593.132, 423.260 593.047 C 422.292 593.005, 419.443 592.714, 416.928 592.399 C 414.414 592.084, 410.476 592.333, 408.178 592.952 C 404.521 593.937, 404 594.431, 404 596.911 C 404 599.580, 404.291 599.773, 408.975 600.224 C 414.813 600.785, 421.118 604.562, 424.108 609.290 C 425.827 612.009, 426.066 613.670, 425.670 620.157 L 425.202 627.813 428.589 625.815 C 432.916 623.262, 436.444 619.051, 439.657 612.607 C 442.413 607.081, 449.594 599, 451.749 599 C 452.481 599, 454.300 598.155, 455.790 597.122 C 457.281 596.089, 466.375 590.358, 476 584.387 C 504.188 566.900, 515.680 557.262, 520.321 547.217 C 522.251 543.040, 522.476 541.013, 522.291 529.500 C 522.177 522.350, 521.727 513.783, 521.291 510.463 L 520.500 504.426 510.500 507.204 M 582.355 514.500 C 582.352 519.450, 582.521 521.601, 582.731 519.280 C 582.940 516.959, 582.943 512.909, 582.736 510.280 C 582.530 507.651, 582.358 509.550, 582.355 514.500 M 271.709 512.317 C 271.196 513.652, 258.058 521.518, 248 526.510 C 244.975 528.012, 242.380 529.344, 242.232 529.471 C 241.651 529.972, 245.020 543.979, 246.984 549.227 C 249.339 555.521, 255.150 562.631, 261.523 567.016 L 265.829 569.978 276.164 565.654 C 294.742 557.883, 312.965 549.516, 312.983 548.750 C 312.992 548.337, 312.371 548, 311.602 548 C 309.415 548, 298.978 542.223, 294.427 538.494 C 291.955 536.468, 288.815 532.274, 286.564 527.990 C 283.415 521.998, 282.871 520.071, 283.158 515.929 L 283.500 510.999 277.857 510.999 C 274.112 511, 272.044 511.443, 271.709 512.317 M 295.750 511.680 C 291.626 512.780, 294.625 516.379, 304.641 522.351 C 311.939 526.702, 322.847 537.985, 323.653 542.017 C 324.180 544.649, 326.609 546.724, 327.786 545.547 C 328.667 544.666, 326.182 534.365, 323.935 529.585 C 319.412 519.964, 303.232 509.684, 295.750 511.680 M 360.846 523.567 C 350.328 528.932, 349.776 533.845, 358.076 548.226 C 361.746 554.585, 363.460 558.727, 363.774 562 C 364.194 566.376, 363.956 566.962, 360.112 571.003 C 357.850 573.380, 356 575.477, 356 575.663 C 356 576.966, 363.065 575.565, 366.412 573.598 C 373.815 569.248, 377.543 561.406, 376.053 553.319 C 375.173 548.540, 373.785 545.861, 368.785 539.292 C 364.452 533.598, 362.989 527.758, 364.969 524.059 C 365.625 522.832, 366.013 521.686, 365.831 521.511 C 365.649 521.336, 363.406 522.262, 360.846 523.567 M 126.750 524.745 C 131.837 524.927, 140.162 524.927, 145.250 524.745 C 150.338 524.564, 146.175 524.415, 136 524.415 C 125.825 524.415, 121.662 524.564, 126.750 524.745 M 594.250 550.735 C 596.862 550.941, 601.138 550.941, 603.750 550.735 C 606.362 550.529, 604.225 550.360, 599 550.360 C 593.775 550.360, 591.638 550.529, 594.250 550.735 M 605.250 556.716 C 606.763 556.945, 609.237 556.945, 610.750 556.716 C 612.263 556.487, 611.025 556.300, 608 556.300 C 604.975 556.300, 603.737 556.487, 605.250 556.716 M 328.627 565.299 C 327.944 571.826, 327.791 580, 328.351 580 C 328.544 580, 330.119 579.506, 331.851 578.902 C 334.820 577.867, 335.011 577.495, 335.194 572.402 C 335.640 560.010, 335.783 560.640, 332.377 559.943 L 329.253 559.304 328.627 565.299 M 398.543 567.931 C 397.678 569.330, 399.997 570.383, 404.443 570.610 C 407.413 570.762, 407.988 570.573, 406.716 569.861 C 405.780 569.337, 404.449 568.983, 403.757 569.073 C 400.920 569.443, 398.920 568.939, 399.500 568 C 399.840 567.450, 399.893 567, 399.618 567 C 399.343 567, 398.859 567.419, 398.543 567.931 M 340.500 589.399 C 331.108 591.708, 328.520 594.559, 334.392 596.130 C 335.911 596.536, 347.648 596.712, 360.473 596.521 C 378.800 596.247, 384.403 595.850, 386.646 594.667 L 389.500 593.160 386.500 591.986 C 377.233 588.357, 350.788 586.870, 340.500 589.399 M 197.033 598.282 C 197.015 600.362, 197.622 603.512, 198.383 605.282 C 199.928 608.876, 206.649 617, 208.078 617 C 209.541 617, 209.149 611.116, 207.447 607.529 C 206.592 605.728, 203.907 602.060, 201.480 599.377 L 197.067 594.500 197.033 598.282 M 327.004 606.301 C 327.018 610.457, 330.352 626.848, 332.436 633.010 C 335.188 641.142, 340.443 647.526, 347.500 651.309 C 353.175 654.351, 364.837 654.334, 370.616 651.275 C 377.201 647.789, 380.906 644.130, 383.939 638.117 C 386.408 633.223, 390.741 617.930, 392.373 608.349 C 392.906 605.221, 392.891 605.208, 390.205 606.525 C 378.402 612.317, 344.191 612.285, 330.272 606.469 C 327.823 605.446, 327.001 605.404, 327.004 606.301 M 221 610.687 L 221 614.374 224.250 611.445 C 226.037 609.834, 227.928 608.175, 228.450 607.758 C 228.972 607.341, 227.510 607, 225.200 607 C 221.026 607, 221 607.023, 221 610.687 M 402.604 616.843 C 401.722 620.722, 401 624.143, 401 624.447 C 401 625.970, 408.986 624.799, 411.365 622.927 C 416.268 619.071, 413.896 611.661, 407.354 610.399 L 404.208 609.792 402.604 616.843 M 233 617.579 C 226.804 621.096, 221 626.931, 221 629.642 C 221 631.870, 221.019 631.872, 225.750 630.267 C 229.108 629.127, 232.185 626.893, 236.250 622.644 C 239.412 619.337, 242 616.265, 242 615.816 C 242 614.183, 237.393 615.085, 233 617.579 M 189.444 635.520 C 191.871 641.329, 193.450 642.941, 201.143 647.465 C 205.189 649.845, 208.527 651.726, 208.561 651.646 C 208.594 651.566, 208.443 649.209, 208.225 646.409 C 207.842 641.487, 207.657 641.215, 202.653 638.182 C 199.807 636.457, 196.011 634.752, 194.218 634.394 C 192.425 634.035, 190.716 633.350, 190.420 632.871 C 190.124 632.392, 189.452 632, 188.928 632 C 188.403 632, 188.635 633.584, 189.444 635.520 M 146.250 641.716 C 147.762 641.945, 150.238 641.945, 151.750 641.716 C 153.262 641.487, 152.025 641.300, 149 641.300 C 145.975 641.300, 144.738 641.487, 146.250 641.716 M 312.768 655.565 C 312.389 655.944, 312.768 657.585, 313.610 659.212 C 315.589 663.041, 325.078 667.516, 334.500 669.067 C 343.540 670.554, 373.468 670.553, 382.500 669.065 C 393.223 667.299, 400.037 664.830, 403.684 661.391 C 409.517 655.890, 408.521 655, 396.534 655 L 386.067 655 380.033 658.901 C 372.256 663.927, 365.887 665.442, 355.805 664.664 C 347.622 664.033, 341.826 661.992, 336.302 657.793 C 333.486 655.654, 331.928 655.334, 323.280 655.120 C 317.877 654.987, 313.146 655.187, 312.768 655.565 M 189 669.575 C 189 671.863, 193.792 683.087, 196.544 687.246 L 199.028 691 211.963 691 L 224.897 691 229.949 680.909 C 232.727 675.360, 235 670.238, 235 669.528 C 235 668.512, 230.091 668.223, 212 668.174 C 192.440 668.120, 189 668.330, 189 669.575" stroke="none" fill="#534b27" fill-rule="evenodd"/><path d="M 0 375.001 L 0 750.003 375.250 749.751 L 750.500 749.500 750.751 374.750 L 751.003 0 375.501 0 L 0 0 0 375.001 M 0.495 375.500 C 0.495 581.750, 0.610 666.274, 0.750 563.331 C 0.890 460.389, 0.890 291.639, 0.750 188.331 C 0.610 85.024, 0.495 169.250, 0.495 375.500 M 184.750 48.724 C 182.398 51.323, 182.495 55.659, 184.934 56.965 C 186.170 57.626, 200.607 58, 224.934 58 L 263 58 263 71.531 C 263 83.546, 262.804 85.123, 261.250 85.604 C 260.288 85.901, 258.878 86.465, 258.117 86.857 C 256.885 87.492, 245 123.584, 245 126.690 C 245 127.376, 242.617 129.698, 239.704 131.849 C 231.523 137.893, 221.062 149.734, 217.813 156.629 C 216.224 160, 214.042 163.557, 212.962 164.534 C 211.673 165.701, 211 167.604, 211 170.084 C 211 176.552, 212.170 177, 229.071 177 L 244 177 244 179.662 C 244 184.305, 248.625 190.744, 254.296 193.996 C 258.884 196.628, 260.453 196.982, 267.554 196.991 C 274.245 196.998, 276.495 196.558, 280.851 194.387 C 286.838 191.404, 291.009 186.743, 292.589 181.272 L 293.678 177.500 307.589 177.233 C 319.226 177.009, 321.704 176.692, 322.750 175.291 C 324.814 172.528, 324.241 167.440, 321.500 164.182 C 320.125 162.548, 319 160.771, 319 160.234 C 319 158.696, 309.544 144.607, 305.527 140.161 C 303.529 137.950, 299.674 134.716, 296.961 132.975 C 292.375 130.032, 291.881 129.306, 289.931 122.655 C 284.237 103.229, 279.566 89.327, 278.203 87.750 C 277.371 86.787, 275.860 86, 274.845 86 C 273.140 86, 273 84.941, 273 72 L 273 58 408.300 58 C 512.200 58, 543.878 57.722, 544.800 56.800 C 546.534 55.066, 546.274 50.472, 544.352 48.877 C 542.975 47.734, 513.399 47.450, 364.602 47.150 C 189.580 46.797, 186.469 46.824, 184.750 48.724 M 499.500 83.457 C 480.949 86.839, 467.851 92.144, 453.420 102.121 C 433.312 116.021, 419.284 139.229, 414.537 166.446 C 412.745 176.723, 412.387 209.986, 414.035 213.066 C 415.231 215.300, 421.805 215.795, 423.800 213.800 C 424.639 212.961, 425.002 207.471, 425.006 195.550 C 425.016 167.544, 428.691 151.128, 438.424 135.620 C 447.230 121.587, 457.095 112.521, 472.257 104.526 C 519.621 79.550, 583.520 97.288, 605.030 141.383 C 614.320 160.428, 614.316 160.400, 614.760 216.500 L 615.147 265.500 543.895 265.500 L 472.644 265.500 471.909 268.247 C 471.377 270.237, 471.677 271.615, 472.999 273.247 L 474.823 275.500 549.714 275.840 C 615.761 276.140, 624.754 276.001, 625.866 274.661 C 626.856 273.469, 627.049 261.680, 626.767 219.821 L 626.407 166.500 623.782 157 C 617.253 133.368, 606.625 117.062, 588.825 103.365 C 577.490 94.643, 557.650 86.369, 541.119 83.470 C 530.976 81.691, 509.222 81.684, 499.500 83.457 M 261.221 111.790 C 258.900 118.825, 257 124.900, 257 125.290 C 257 125.681, 262.086 126, 268.303 126 L 279.605 126 275.053 112.501 C 270.813 99.930, 270.326 99.002, 267.971 99.001 C 265.618 99, 265.150 99.887, 261.221 111.790 M 518 111.952 C 518 116.807, 517.710 117.362, 511.928 123.578 C 501.443 134.848, 499.466 142.624, 505.250 149.836 C 507.038 152.065, 508.950 153.767, 509.500 153.617 C 510.050 153.468, 510.615 151.580, 510.757 149.423 C 511.335 140.578, 512.068 138.876, 518.088 132.405 C 524.510 125.502, 526 122.711, 526 117.583 C 526 113.838, 522.276 107.677, 519.715 107.184 C 518.276 106.907, 518 107.674, 518 111.952 M 537.590 123.133 C 537.349 123.885, 536.638 126.171, 536.011 128.213 C 535.208 130.824, 533.404 133.001, 529.929 135.552 C 523.869 140, 522 142.559, 522 146.407 C 522 149.528, 525.626 158, 526.961 158 C 527.392 158, 528.049 156.096, 528.421 153.770 C 528.981 150.264, 530.144 148.571, 535.207 143.886 C 541.042 138.486, 541.337 137.983, 541.777 132.675 C 542.157 128.095, 541.868 126.647, 540.133 124.441 C 538.660 122.570, 537.896 122.176, 537.590 123.133 M 243.516 144.134 C 237.459 149.800, 227.032 162.507, 227.010 164.250 C 227.004 164.662, 245 165, 267 165 C 289 165, 306.999 164.662, 306.997 164.250 C 306.993 163.042, 300.007 151.719, 297.655 149.108 C 296.470 147.793, 292.863 144.755, 289.640 142.358 L 283.780 138 266.927 138 L 250.073 138 243.516 144.134 M 490.210 167.502 C 486.200 168.228, 481.812 169.548, 480.460 170.435 C 478.174 171.932, 478.001 172.628, 478.017 180.273 C 478.050 195.740, 481.360 205.576, 490.083 216.124 L 493.906 220.747 491.024 220.502 C 489.438 220.367, 481.487 220.086, 473.355 219.878 L 458.568 219.500 457.352 221.931 C 454.118 228.393, 464.798 236.568, 484.017 242.342 C 497.275 246.325, 506.964 247.304, 527.292 246.715 C 541.105 246.314, 547.339 245.697, 553.120 244.158 C 564.613 241.097, 575.542 236.155, 580.532 231.763 C 585.223 227.634, 586.072 224.848, 583.651 221.537 C 582.413 219.844, 581.125 219.738, 568.075 220.254 C 560.251 220.564, 554.009 220.658, 554.203 220.463 C 554.398 220.268, 558.122 219.372, 562.479 218.473 C 566.836 217.573, 572.040 216, 574.045 214.977 C 583.871 209.964, 588.530 197.991, 584.452 188.232 C 581.719 181.690, 575.886 177, 570.484 177 C 566.805 177, 564 175.269, 564 173 C 564 170.335, 561.615 169.292, 551.481 167.525 C 540.295 165.574, 500.928 165.559, 490.210 167.502 M 497.745 176.017 C 493.480 176.506, 489.205 177.346, 488.245 177.883 C 486.707 178.744, 486.838 178.988, 489.357 179.946 C 500.535 184.195, 558.201 183.370, 555.499 178.998 C 553.706 176.098, 514.629 174.081, 497.745 176.017 M 255 177.923 C 255 179.908, 261.256 184.957, 264.461 185.559 C 270.650 186.720, 277.409 183.841, 280.042 178.922 C 281.032 177.072, 280.585 177, 268.035 177 C 260.736 177, 255 177.406, 255 177.923 M 564 189.693 C 564 190.761, 563.125 194.967, 562.056 199.040 C 560.987 203.113, 560.329 206.663, 560.595 206.928 C 561.921 208.255, 569.622 204.221, 571.717 201.102 C 575.884 194.899, 574.053 189.761, 567.184 188.387 C 564.479 187.846, 564 188.042, 564 189.693 M 348.862 199.491 C 333.443 202.424, 322.569 208.248, 312.847 218.781 C 306.146 226.039, 302.513 233.108, 300.911 242 L 299.740 248.500 291.771 253.914 C 287.388 256.892, 281.372 261.549, 278.401 264.264 C 273.459 268.781, 273 269.568, 273 273.528 C 273 277.280, 273.478 278.249, 276.603 280.824 C 280.890 284.358, 288.822 286.757, 299.089 287.625 L 306.576 288.258 308.323 296.028 C 309.283 300.302, 313.223 313.182, 317.077 324.650 C 320.931 336.117, 324.178 346.285, 324.292 347.243 C 324.448 348.549, 322.075 350.083, 314.850 353.350 C 301.791 359.255, 292.536 365.604, 281.223 376.420 C 270.939 386.250, 255.665 405.845, 246.470 421 C 238.487 434.158, 237.119 437.467, 237.741 442.102 C 238.225 445.711, 237.852 446.442, 232.380 452.609 C 213.815 473.535, 208.692 481.702, 206.896 493.239 C 205.686 501.013, 207.342 509.413, 211.329 515.728 C 214.184 520.250, 226.071 531.570, 228.912 532.472 C 230.292 532.910, 231.109 534.282, 231.494 536.806 C 234.139 554.157, 237.538 561.413, 247.396 570.756 C 251.310 574.465, 256.646 578.624, 259.254 579.997 L 263.996 582.495 270.748 580.140 C 276.876 578.002, 297.460 569.315, 312.357 562.579 L 318.214 559.930 317.635 567.715 C 317.316 571.997, 316.782 580.225, 316.449 586 L 315.842 596.500 265.469 596 L 215.095 595.500 211.297 591.904 C 206.569 587.426, 192.054 576.613, 191.506 577.161 C 191.284 577.383, 190.019 581.742, 188.697 586.846 L 186.293 596.128 160.177 596.034 C 135.198 595.944, 133.972 596.028, 132.030 597.970 C 129.404 600.596, 129.469 602.152, 132.314 604.826 C 134.567 606.941, 135.319 607, 160.289 607 L 185.949 607 187.571 610.137 C 189.784 614.418, 193.282 617.487, 201.250 622.144 C 205.021 624.348, 208 626.778, 208 627.651 C 208 628.748, 207.478 628.999, 206.250 628.492 C 196.907 624.640, 175.013 619.654, 173.608 621.058 C 173.046 621.621, 176.250 636.220, 177.773 640.031 C 179.463 644.263, 186.047 649.815, 194.657 654.270 L 202.831 658.500 188.415 658.156 L 174 657.812 174 660.210 C 174 663.404, 180.132 681.479, 183.485 688.168 C 184.955 691.101, 187.270 694.962, 188.630 696.750 L 191.102 700 212.073 700 L 233.044 700 236.983 693.905 C 241.381 687.101, 248.561 669.597, 249.587 663.179 L 250.256 659 235.628 659 L 221 659 221 650.221 L 221 641.443 227.953 639.652 C 235.610 637.679, 245.019 632.143, 249.240 627.126 C 251.828 624.051, 254.193 617.820, 255.581 610.421 L 256.223 607 285.969 607 L 315.715 607 316.346 612.750 C 316.947 618.238, 321.165 637.844, 322.422 641 C 322.928 642.270, 321.542 642.505, 313.396 642.532 C 304.135 642.563, 303.682 642.668, 301.386 645.338 C 299.419 647.624, 299.004 649.200, 299.022 654.306 C 299.090 673.539, 314.309 681.680, 352.143 682.723 C 397.894 683.983, 419.552 675.404, 420.818 655.520 C 421.188 649.713, 421.002 649.034, 418.191 645.886 C 415.207 642.546, 415.037 642.495, 405.583 642.153 C 400.312 641.963, 396 641.647, 396 641.451 C 396 641.254, 396.501 639.994, 397.114 638.649 C 399.159 634.161, 410.810 633.523, 416.918 637.565 C 420.118 639.682, 421.466 640.007, 424.647 639.429 C 433.837 637.760, 440.657 632.353, 447.990 620.920 C 450.887 616.404, 454.897 611.638, 457.209 609.964 L 461.300 607 532.900 606.985 C 572.280 606.976, 604.995 606.639, 605.600 606.235 C 606.205 605.831, 607.250 604.457, 607.921 603.183 C 608.923 601.281, 608.856 600.430, 607.548 598.433 L 605.954 596 548.502 596 L 491.050 596 491.682 592.750 C 492.030 590.962, 492.806 589.192, 493.407 588.816 C 512.258 577.016, 527.597 563.306, 531.508 554.763 C 535.432 546.192, 536.611 536.736, 535.184 525.271 C 534.516 519.897, 533.685 511.802, 533.339 507.282 L 532.709 499.065 536.354 495.030 C 538.359 492.810, 540 490.755, 540 490.462 C 540 490.169, 538.195 482.633, 535.988 473.715 C 530.239 450.476, 524.627 435.312, 513.462 412.848 C 503.451 392.705, 496.307 383.420, 484.288 374.931 C 477.399 370.066, 457.547 359.218, 441.289 351.437 C 429.208 345.654, 425.963 343.677, 425.523 341.828 C 424.514 337.593, 422.012 319.554, 422.009 316.500 C 422.008 314.850, 423.804 306.075, 426 297 C 428.196 287.925, 429.995 279.488, 429.997 278.250 C 429.999 277.012, 430.367 276, 430.815 276 C 432.073 276, 434.697 282.100, 438.502 293.871 C 442.832 307.265, 446.425 311.844, 456.326 316.589 C 460.147 318.420, 465.124 320.181, 467.387 320.503 C 472.693 321.256, 480.369 319.039, 480.835 316.618 C 481.377 313.804, 477.154 310.151, 471.182 308.268 C 466.673 306.847, 465.070 305.673, 461.970 301.524 C 457.080 294.978, 452.739 286.183, 450.185 277.651 C 447.447 268.502, 443.870 263.559, 437.965 260.764 C 433.388 258.597, 433.155 258.285, 432.546 253.500 C 429.601 230.394, 419.614 216.149, 399.287 206.064 C 385.374 199.161, 364.739 196.471, 348.862 199.491 M 170.015 208.476 C 150.925 212.079, 131.683 226.673, 123.160 244.012 C 115.129 260.351, 114.815 262.857, 114.967 309.300 C 115.041 331.740, 115.358 350.769, 115.672 351.587 C 117.330 355.909, 118.716 356, 183 356 C 249.140 356, 249.210 355.994, 250.547 350.670 C 250.863 349.408, 250.950 329.729, 250.739 306.938 C 250.310 260.524, 250.318 260.591, 242.756 245 C 237.165 233.472, 224.116 220.190, 213 214.713 C 199.510 208.066, 184.061 205.824, 170.015 208.476 M 352.500 209.675 C 331.303 212.648, 315.813 225.768, 313.078 243.067 L 312.315 247.895 317.408 248.388 C 320.208 248.658, 330.375 249.327, 340 249.874 C 358.802 250.942, 366.988 252.694, 370.243 256.348 C 372.110 258.445, 372.625 258.499, 383.343 257.727 C 389.480 257.284, 400.238 257.053, 407.251 257.211 L 420.003 257.500 419.987 255 C 419.956 250.307, 416.951 239.682, 414.253 234.723 C 409.369 225.749, 394.848 214.511, 384.255 211.505 C 382.255 210.938, 382.451 211.507, 386.052 216.725 C 389.137 221.196, 390.299 224.039, 390.964 228.747 C 392.434 239.142, 390.466 241.719, 385.535 235.859 C 382.706 232.497, 373 212.984, 373 210.659 C 373 209.571, 371.071 209.262, 364.250 209.258 C 359.438 209.256, 354.150 209.443, 352.500 209.675 M 187 245.629 L 187 273 189.750 273.192 C 191.262 273.298, 202.962 273.411, 215.749 273.442 L 238.999 273.500 238.999 270.302 C 239 264.356, 234.096 251.311, 228.989 243.676 C 220.064 230.331, 207.522 222.068, 191.750 219.140 L 187 218.258 187 245.629 M 166.500 220.861 C 153.463 225.346, 142.951 233.418, 135.818 244.422 C 131.985 250.334, 127.833 261.756, 126.628 269.704 L 125.991 273.907 147.746 273.561 C 159.711 273.371, 171.188 273.167, 173.250 273.108 L 177 273 177 246 L 177 219 174.250 219.070 C 172.738 219.109, 169.250 219.914, 166.500 220.861 M 556.500 230.203 C 551.550 230.716, 530.900 230.948, 510.610 230.720 C 474.464 230.313, 473.789 230.341, 477.110 232.127 C 478.975 233.129, 484.100 235.157, 488.500 236.632 C 495.657 239.032, 498.343 239.360, 514 239.746 C 529.042 240.116, 532.946 239.880, 541.794 238.060 C 552.566 235.846, 573.121 228.543, 566.917 229.135 C 566.138 229.209, 561.450 229.690, 556.500 230.203 M 305 258.749 C 303.625 259.653, 299.538 262.339, 295.917 264.718 C 292.296 267.096, 288.080 270.351, 286.548 271.950 L 283.761 274.859 287.631 275.866 C 295.909 278.021, 303.982 279.036, 317.468 279.619 C 333.441 280.309, 340.851 279.083, 351.548 273.977 C 358.710 270.559, 365.131 264.212, 362.767 262.889 C 359.471 261.045, 351.379 259.891, 332 258.501 C 307.216 256.723, 308.093 256.715, 305 258.749 M 367 277.093 C 358.310 284.572, 340.813 289.981, 325.271 289.993 L 316.043 290 317.173 292.481 C 317.795 293.845, 319.248 295.225, 320.402 295.548 C 328.200 297.727, 328 297.423, 328 307.072 C 328 318.637, 329.505 325.708, 332.144 326.546 C 333.243 326.895, 336.698 326.888, 339.821 326.531 C 343.923 326.063, 346.016 326.264, 347.360 327.258 C 349.152 328.584, 349.133 328.734, 346.827 331.415 C 345.051 333.479, 343.237 334.332, 339.794 334.720 C 335.328 335.223, 335.194 335.332, 336.237 337.621 C 337.129 339.579, 338.068 340, 341.536 340 C 343.854 340, 348.234 338.902, 351.269 337.560 C 354.303 336.218, 357.059 335.393, 357.393 335.727 C 358.817 337.151, 357.833 341.808, 355.681 343.830 C 354.405 345.029, 350.580 346.948, 347.181 348.096 C 343.767 349.249, 341 350.777, 341 351.508 C 341 352.237, 340.438 353.022, 339.750 353.253 C 336.686 354.283, 346.758 356.214, 352.891 355.774 C 364.745 354.923, 373.444 348.489, 380.856 335.089 C 386.367 325.127, 387.769 323.963, 391.399 326.342 C 394.890 328.629, 394.714 331.313, 390.531 339.616 C 386.107 348.394, 379.097 357.268, 373.431 361.262 C 370.994 362.980, 369.001 364.861, 369.001 365.443 C 369.002 366.024, 369.674 370.317, 370.495 374.981 C 371.316 379.646, 371.735 384.259, 371.427 385.231 C 370.933 386.785, 371.571 386.999, 376.683 386.988 C 391.823 386.957, 406.408 379.192, 413.038 367.631 C 416.766 361.132, 416.819 357.165, 413.461 336.356 L 410.922 320.625 406.961 317.235 C 401.670 312.706, 401.643 309.760, 406.873 307.667 C 410.456 306.234, 410.870 305.645, 412.404 299.809 C 415.063 289.684, 412.753 285.073, 405.686 286.399 C 400.518 287.369, 397.120 291.362, 394.112 300 C 392.060 305.893, 391.040 307.566, 389.354 307.806 C 387.602 308.056, 386.884 307.230, 385.441 303.306 C 379.995 288.493, 372.914 273.941, 371.201 274.041 C 370.815 274.063, 368.925 275.437, 367 277.093 M 126.001 313.250 L 126 345 151.514 345 L 177.028 345 176.764 313.250 L 176.500 281.500 151.251 281.500 L 126.001 281.500 126.001 313.250 M 188.750 281.733 C 187.129 282.116, 187 284.467, 187 313.573 L 187 345 213.514 345 L 240.028 345 239.764 313.250 L 239.500 281.500 215 281.410 C 201.525 281.360, 189.713 281.506, 188.750 281.733 M 344.223 295.557 C 339.628 298.775, 342.515 306, 348.394 306 C 352.971 306, 355 304.317, 355 300.522 C 355 296.806, 352.203 294, 348.500 294 C 347.370 294, 345.445 294.701, 344.223 295.557 M 517 345.265 C 517 345.485, 518.913 347.185, 521.250 349.043 C 523.587 350.900, 524.865 351.630, 524.089 350.663 C 522.627 348.843, 517 344.558, 517 345.265 M 606.608 348.817 C 607.649 350.641, 609.371 352.891, 610.435 353.817 C 611.560 354.796, 611.165 353.827, 609.490 351.500 C 605.483 345.934, 604.375 344.902, 606.608 348.817 M 428.511 362.937 C 428.145 365.103, 426.303 369.490, 424.417 372.687 C 414.619 389.300, 392.516 400, 370.619 398.730 C 349.886 397.528, 338.720 390.090, 329.291 371.201 C 326.048 364.704, 325.364 363.934, 323.074 364.201 C 320.760 364.470, 320.428 365.057, 319.786 370 C 319.393 373.025, 318.766 388.150, 318.392 403.610 L 317.712 431.720 371.148 431.919 L 424.585 432.119 425.768 420.309 C 427.943 398.616, 432.437 379.407, 438.106 367.576 C 439.140 365.418, 439.877 363.564, 439.743 363.456 C 439.370 363.154, 429.785 359, 429.461 359 C 429.304 359, 428.876 360.772, 428.511 362.937 M 578.974 366.250 C 577.653 368.038, 573.647 372.875, 570.073 377 C 566.499 381.125, 564.423 383.825, 565.460 383 C 567.473 381.399, 582 364.238, 582 363.462 C 582 362.466, 581.281 363.128, 578.974 366.250 M 600.193 369.003 C 601.903 371.755, 603.944 374.539, 604.728 375.189 C 605.512 375.840, 604.304 373.588, 602.044 370.186 C 597.124 362.778, 595.796 361.930, 600.193 369.003 M 342.601 370.901 C 346.515 377.472, 350.100 380.990, 355.895 383.947 L 359.524 385.798 359.512 376.552 L 359.500 367.307 355.281 367.780 C 351.515 368.202, 345.261 367.188, 340.601 365.401 C 339.450 364.959, 340.059 366.634, 342.601 370.901 M 452.130 372.181 C 448.044 383.032, 445.909 389.836, 444.618 396.127 C 440.303 417.135, 439.834 476.569, 443.841 494.500 C 446.862 508.018, 450.707 519.481, 455.580 529.500 C 462.473 543.673, 461.703 543.288, 469.851 536.622 L 476.774 530.958 474.913 522.729 C 473.889 518.203, 473.040 514.191, 473.026 513.813 C 473.012 513.435, 471.434 513.380, 469.519 513.691 C 464.926 514.436, 461.348 512.050, 458.984 506.666 C 456.478 500.956, 452.010 479.265, 451.301 469.361 C 450.752 461.694, 450.847 461.152, 452.923 460.041 C 454.555 459.168, 455.479 459.152, 456.477 459.981 C 457.780 461.062, 465.017 481.913, 468.546 494.750 L 470.264 501 474.457 501 C 484.977 501, 515.719 493.470, 524.387 488.770 L 526.730 487.500 523.824 476 C 519.028 457.016, 512.329 438.385, 504.491 422.231 C 490.397 393.185, 485.265 387.539, 460.752 374.107 L 453.003 369.862 452.130 372.181 M 298.500 376.915 C 285.948 386.837, 274.660 400.604, 260.560 423.186 C 250.209 439.765, 250.081 438.098, 262.549 449.043 C 270.557 456.073, 280.391 461.960, 287.221 463.813 L 290.942 464.823 296.221 457.702 L 301.500 450.581 301.599 422.540 C 301.675 401.211, 302.112 391.906, 303.427 383.661 C 304.378 377.700, 305.008 372.676, 304.828 372.497 C 304.647 372.319, 301.800 374.307, 298.500 376.915 M 158.947 383.105 C 157.795 385.362, 157.277 386.947, 157.796 386.626 C 158.315 386.305, 159.306 384.676, 159.998 383.005 C 161.077 380.400, 161.487 380.148, 162.878 381.234 C 164.320 382.360, 164.348 382.306, 163.128 380.750 C 162.373 379.788, 161.594 379, 161.398 379 C 161.201 379, 160.098 380.847, 158.947 383.105 M 611.500 383 C 613.648 385.200, 615.592 387, 615.819 387 C 616.661 387, 609.464 379.166, 608.547 379.085 C 608.023 379.038, 609.352 380.800, 611.500 383 M 556 391.205 C 552.425 394.566, 551.300 395.937, 553.500 394.251 C 557.318 391.325, 563.857 384.948, 562.937 385.047 C 562.697 385.073, 559.575 387.844, 556 391.205 M 153.879 391.750 C 152.622 393.813, 149.098 398.235, 146.047 401.579 C 140.709 407.429, 140.744 407.408, 147 401.023 C 150.575 397.374, 154.313 392.951, 155.307 391.194 C 157.831 386.730, 156.659 387.186, 153.879 391.750 M 617.083 388.307 C 617.313 388.476, 619.525 390.094, 622 391.902 L 626.500 395.189 622.500 391.610 C 620.300 389.641, 618.087 388.023, 617.583 388.015 C 617.079 388.007, 616.854 388.138, 617.083 388.307 M 169.148 393.900 C 171.643 398.037, 184 411.643, 184 410.252 C 184 409.801, 181.491 406.972, 178.423 403.966 C 175.356 400.960, 171.714 396.587, 170.328 394.250 C 168.943 391.913, 167.582 390, 167.303 390 C 167.025 390, 167.855 391.755, 169.148 393.900 M 606 392.459 C 606 392.734, 607.800 393.878, 610 395 C 612.200 396.122, 614 396.816, 614 396.541 C 614 396.266, 612.200 395.122, 610 394 C 607.800 392.878, 606 392.184, 606 392.459 M 598.040 394.364 C 597.969 395.888, 602.333 403, 603.339 403 C 603.873 403, 603.622 402.212, 602.780 401.250 C 601.939 400.288, 600.537 398.150, 599.665 396.500 C 598.793 394.850, 598.062 393.889, 598.040 394.364 M 604 404.275 C 604 404.426, 607.487 407.914, 611.750 412.025 L 619.500 419.500 612.025 411.750 C 605.082 404.552, 604 403.544, 604 404.275 M 148.203 411.429 C 143.558 414.713, 142.905 415.652, 146.827 413.406 C 148.657 412.357, 150.624 410.938, 151.199 410.250 C 152.677 408.483, 151.984 408.756, 148.203 411.429 M 172.859 410.330 C 174.753 412.612, 184.021 417.206, 185.548 416.620 C 187.160 416.001, 187.505 413.430, 186.093 412.558 C 185.595 412.249, 185.422 412.898, 185.710 413.999 C 186.479 416.938, 184.263 416.530, 177.567 412.498 C 174.369 410.573, 172.250 409.597, 172.859 410.330 M 561 417.245 C 556.325 421.729, 554.300 423.994, 556.500 422.279 C 560.432 419.214, 570.868 408.956, 569.962 409.046 C 569.708 409.071, 565.675 412.761, 561 417.245 M 213 413.207 C 211.075 414.864, 210.400 415.728, 211.500 415.127 C 214.522 413.475, 217.408 411.073, 216.927 410.608 C 216.692 410.381, 214.925 411.551, 213 413.207 M 151.679 418.284 C 149.227 422.470, 144.595 427.102, 134.161 435.805 C 131.323 438.173, 129 440.491, 129 440.955 C 129 441.420, 130.505 440.382, 132.344 438.650 C 134.184 436.918, 139.021 432.528, 143.094 428.895 C 147.168 425.263, 151.541 420.425, 152.814 418.145 C 155.872 412.667, 154.901 412.786, 151.679 418.284 M 170.792 419.579 C 173.722 423.874, 178.704 428.652, 184 432.246 C 186.475 433.926, 189.611 436.245, 190.970 437.400 C 192.923 439.061, 193.141 439.112, 192.010 437.645 C 191.224 436.625, 188.028 434.056, 184.909 431.938 C 181.789 429.820, 176.864 425.479, 173.964 422.293 C 171.064 419.107, 169.637 417.885, 170.792 419.579 M 623.217 422.513 C 625.261 424.651, 627.095 426.197, 627.294 425.950 C 627.492 425.702, 625.819 423.953, 623.577 422.063 L 619.500 418.626 623.217 422.513 M 607.673 424.080 C 608.914 425.582, 615 429.411, 615 428.689 C 615 428.456, 613.087 427.004, 610.750 425.463 C 608.413 423.921, 607.028 423.299, 607.673 424.080 M 166 433.373 C 166 434.453, 169.972 442, 170.541 442 C 170.816 442, 170.076 440.087, 168.897 437.750 C 166.579 433.153, 166 432.278, 166 433.373 M 567.453 440.250 L 563.500 444.500 567.750 440.547 C 571.702 436.871, 572.460 436, 571.703 436 C 571.540 436, 569.627 437.913, 567.453 440.250 M 612.958 442.250 C 615.410 444.863, 617.548 447, 617.708 447 C 618.459 447, 617.665 446.102, 613.250 441.958 L 608.500 437.500 612.958 442.250 M 148.405 445.133 C 147.357 446.306, 142.113 450.828, 136.750 455.182 C 131.387 459.536, 127.036 463.639, 127.079 464.299 C 127.138 465.202, 127.277 465.208, 127.638 464.324 C 127.902 463.677, 132.029 460.011, 136.809 456.177 C 144.975 449.628, 152.034 443, 150.842 443 C 150.549 443, 149.453 443.960, 148.405 445.133 M 180 453.500 C 183.543 457.075, 186.667 460, 186.942 460 C 187.217 460, 184.543 457.075, 181 453.500 C 177.457 449.925, 174.333 447, 174.058 447 C 173.783 447, 176.457 449.925, 180 453.500 M 240.587 461.693 C 217.577 486.269, 214.061 500.993, 227.621 516.002 C 229.565 518.154, 231.968 520.172, 232.960 520.487 C 233.953 520.802, 237.299 520.112, 240.397 518.953 L 246.030 516.845 243.765 514.985 C 241.930 513.478, 241.710 512.781, 242.604 511.313 C 243.454 509.917, 245.216 509.432, 250.253 509.207 L 256.798 508.913 256.295 505.165 C 255.575 499.798, 257.594 498.339, 263.796 499.743 C 266.383 500.328, 270.300 500.505, 272.500 500.136 L 276.500 499.464 271.500 497.329 C 262.269 493.388, 255.834 492, 246.787 492 C 239.472 492, 237.827 491.713, 237.302 490.344 C 236.409 488.017, 241.874 483.381, 247.211 481.939 C 250.941 480.931, 252.804 481.113, 261.500 483.334 C 267 484.739, 272.460 486.177, 273.633 486.530 C 275.394 487.060, 276.485 486.169, 279.884 481.422 L 284.002 475.672 275.062 471.424 C 266.399 467.307, 253.586 459.600, 249.500 456.048 C 247.558 454.359, 247.300 454.523, 240.587 461.693 M 152.058 462.596 C 150.748 465.066, 147.864 469.204, 145.649 471.793 C 141.935 476.133, 141.891 476.248, 145.086 473.271 C 148.543 470.051, 155.654 459.321, 154.859 458.526 C 154.628 458.295, 153.368 460.127, 152.058 462.596 M 301.123 471.231 C 300.365 472.479, 296.831 477.440, 293.268 482.255 L 286.791 491.010 289.146 492.972 C 290.441 494.051, 292.850 494.953, 294.500 494.978 C 296.150 495.002, 299.188 495.301, 301.250 495.642 L 305 496.262 304.945 492.381 C 304.914 490.246, 304.352 484.104, 303.695 478.731 C 302.598 469.764, 302.387 469.148, 301.123 471.231 M 582.286 486.500 C 582.294 489.250, 582.488 490.256, 582.718 488.736 C 582.947 487.216, 582.941 484.966, 582.704 483.736 C 582.467 482.506, 582.279 483.750, 582.286 486.500 M 165.300 493 C 165.300 496.025, 165.487 497.262, 165.716 495.750 C 165.945 494.238, 165.945 491.762, 165.716 490.250 C 165.487 488.738, 165.300 489.975, 165.300 493 M 510.500 507.204 C 505 508.732, 496.974 510.746, 492.664 511.680 L 484.828 513.377 485.387 516.439 C 485.695 518.122, 486.237 523.325, 486.591 528 L 487.236 536.500 475.868 547.504 C 458.375 564.437, 425.229 593.132, 423.260 593.047 C 422.292 593.005, 419.443 592.714, 416.928 592.399 C 414.414 592.084, 410.476 592.333, 408.178 592.952 C 404.521 593.937, 404 594.431, 404 596.911 C 404 599.580, 404.291 599.773, 408.975 600.224 C 414.813 600.785, 421.118 604.562, 424.108 609.290 C 425.827 612.009, 426.066 613.670, 425.670 620.157 L 425.202 627.813 428.589 625.815 C 432.916 623.262, 436.444 619.051, 439.657 612.607 C 442.413 607.081, 449.594 599, 451.749 599 C 452.481 599, 454.300 598.155, 455.790 597.122 C 457.281 596.089, 466.375 590.358, 476 584.387 C 504.188 566.900, 515.680 557.262, 520.321 547.217 C 522.251 543.040, 522.476 541.013, 522.291 529.500 C 522.177 522.350, 521.727 513.783, 521.291 510.463 L 520.500 504.426 510.500 507.204 M 582.355 514.500 C 582.352 519.450, 582.521 521.601, 582.731 519.280 C 582.940 516.959, 582.943 512.909, 582.736 510.280 C 582.530 507.651, 582.358 509.550, 582.355 514.500 M 271.709 512.317 C 271.196 513.652, 258.058 521.518, 248 526.510 C 244.975 528.012, 242.380 529.344, 242.232 529.471 C 241.651 529.972, 245.020 543.979, 246.984 549.227 C 249.339 555.521, 255.150 562.631, 261.523 567.016 L 265.829 569.978 276.164 565.654 C 294.742 557.883, 312.965 549.516, 312.983 548.750 C 312.992 548.337, 312.371 548, 311.602 548 C 309.415 548, 298.978 542.223, 294.427 538.494 C 291.955 536.468, 288.815 532.274, 286.564 527.990 C 283.415 521.998, 282.871 520.071, 283.158 515.929 L 283.500 510.999 277.857 510.999 C 274.112 511, 272.044 511.443, 271.709 512.317 M 295.750 511.680 C 291.626 512.780, 294.625 516.379, 304.641 522.351 C 311.939 526.702, 322.847 537.985, 323.653 542.017 C 324.180 544.649, 326.609 546.724, 327.786 545.547 C 328.667 544.666, 326.182 534.365, 323.935 529.585 C 319.412 519.964, 303.232 509.684, 295.750 511.680 M 360.846 523.567 C 350.328 528.932, 349.776 533.845, 358.076 548.226 C 361.746 554.585, 363.460 558.727, 363.774 562 C 364.194 566.376, 363.956 566.962, 360.112 571.003 C 357.850 573.380, 356 575.477, 356 575.663 C 356 576.966, 363.065 575.565, 366.412 573.598 C 373.815 569.248, 377.543 561.406, 376.053 553.319 C 375.173 548.540, 373.785 545.861, 368.785 539.292 C 364.452 533.598, 362.989 527.758, 364.969 524.059 C 365.625 522.832, 366.013 521.686, 365.831 521.511 C 365.649 521.336, 363.406 522.262, 360.846 523.567 M 126.750 524.745 C 131.837 524.927, 140.162 524.927, 145.250 524.745 C 150.338 524.564, 146.175 524.415, 136 524.415 C 125.825 524.415, 121.662 524.564, 126.750 524.745 M 594.250 550.735 C 596.862 550.941, 601.138 550.941, 603.750 550.735 C 606.362 550.529, 604.225 550.360, 599 550.360 C 593.775 550.360, 591.638 550.529, 594.250 550.735 M 605.250 556.716 C 606.763 556.945, 609.237 556.945, 610.750 556.716 C 612.263 556.487, 611.025 556.300, 608 556.300 C 604.975 556.300, 603.737 556.487, 605.250 556.716 M 328.627 565.299 C 327.944 571.826, 327.791 580, 328.351 580 C 328.544 580, 330.119 579.506, 331.851 578.902 C 334.820 577.867, 335.011 577.495, 335.194 572.402 C 335.640 560.010, 335.783 560.640, 332.377 559.943 L 329.253 559.304 328.627 565.299 M 398.543 567.931 C 397.678 569.330, 399.997 570.383, 404.443 570.610 C 407.413 570.762, 407.988 570.573, 406.716 569.861 C 405.780 569.337, 404.449 568.983, 403.757 569.073 C 400.920 569.443, 398.920 568.939, 399.500 568 C 399.840 567.450, 399.893 567, 399.618 567 C 399.343 567, 398.859 567.419, 398.543 567.931 M 340.500 589.399 C 331.108 591.708, 328.520 594.559, 334.392 596.130 C 335.911 596.536, 347.648 596.712, 360.473 596.521 C 378.800 596.247, 384.403 595.850, 386.646 594.667 L 389.500 593.160 386.500 591.986 C 377.233 588.357, 350.788 586.870, 340.500 589.399 M 197.033 598.282 C 197.015 600.362, 197.622 603.512, 198.383 605.282 C 199.928 608.876, 206.649 617, 208.078 617 C 209.541 617, 209.149 611.116, 207.447 607.529 C 206.592 605.728, 203.907 602.060, 201.480 599.377 L 197.067 594.500 197.033 598.282 M 327.004 606.301 C 327.018 610.457, 330.352 626.848, 332.436 633.010 C 335.188 641.142, 340.443 647.526, 347.500 651.309 C 353.175 654.351, 364.837 654.334, 370.616 651.275 C 377.201 647.789, 380.906 644.130, 383.939 638.117 C 386.408 633.223, 390.741 617.930, 392.373 608.349 C 392.906 605.221, 392.891 605.208, 390.205 606.525 C 378.402 612.317, 344.191 612.285, 330.272 606.469 C 327.823 605.446, 327.001 605.404, 327.004 606.301 M 221 610.687 L 221 614.374 224.250 611.445 C 226.037 609.834, 227.928 608.175, 228.450 607.758 C 228.972 607.341, 227.510 607, 225.200 607 C 221.026 607, 221 607.023, 221 610.687 M 402.604 616.843 C 401.722 620.722, 401 624.143, 401 624.447 C 401 625.970, 408.986 624.799, 411.365 622.927 C 416.268 619.071, 413.896 611.661, 407.354 610.399 L 404.208 609.792 402.604 616.843 M 233 617.579 C 226.804 621.096, 221 626.931, 221 629.642 C 221 631.870, 221.019 631.872, 225.750 630.267 C 229.108 629.127, 232.185 626.893, 236.250 622.644 C 239.412 619.337, 242 616.265, 242 615.816 C 242 614.183, 237.393 615.085, 233 617.579 M 189.444 635.520 C 191.871 641.329, 193.450 642.941, 201.143 647.465 C 205.189 649.845, 208.527 651.726, 208.561 651.646 C 208.594 651.566, 208.443 649.209, 208.225 646.409 C 207.842 641.487, 207.657 641.215, 202.653 638.182 C 199.807 636.457, 196.011 634.752, 194.218 634.394 C 192.425 634.035, 190.716 633.350, 190.420 632.871 C 190.124 632.392, 189.452 632, 188.928 632 C 188.403 632, 188.635 633.584, 189.444 635.520 M 146.250 641.716 C 147.762 641.945, 150.238 641.945, 151.750 641.716 C 153.262 641.487, 152.025 641.300, 149 641.300 C 145.975 641.300, 144.738 641.487, 146.250 641.716 M 312.768 655.565 C 312.389 655.944, 312.768 657.585, 313.610 659.212 C 315.589 663.041, 325.078 667.516, 334.500 669.067 C 343.540 670.554, 373.468 670.553, 382.500 669.065 C 393.223 667.299, 400.037 664.830, 403.684 661.391 C 409.517 655.890, 408.521 655, 396.534 655 L 386.067 655 380.033 658.901 C 372.256 663.927, 365.887 665.442, 355.805 664.664 C 347.622 664.033, 341.826 661.992, 336.302 657.793 C 333.486 655.654, 331.928 655.334, 323.280 655.120 C 317.877 654.987, 313.146 655.187, 312.768 655.565 M 189 669.575 C 189 671.863, 193.792 683.087, 196.544 687.246 L 199.028 691 211.963 691 L 224.897 691 229.949 680.909 C 232.727 675.360, 235 670.238, 235 669.528 C 235 668.512, 230.091 668.223, 212 668.174 C 192.440 668.120, 189 668.330, 189 669.575" stroke="none" fill="#f8f6ec" fill-rule="evenodd"/></svg>